<svg width="24" height="24" viewBox="0 0 24 24" fill="none" xmlns="http://www.w3.org/2000/svg">
<path d="M8.57999 22.5501C8.35999 22.5501 8.12999 22.5101 7.91999 22.4201C7.44999 22.2201 7.08999 21.8301 6.92999 21.3401L6.48999 20.0201C6.28999 19.4201 6.46999 18.6701 6.90999 18.2201L9.17999 15.9401C9.20999 15.9101 9.24999 15.8001 9.24999 15.7501V13.2801L4.68999 15.2501C4.07999 15.5101 3.45999 15.4801 2.98999 15.1701C2.51999 14.8601 2.23999 14.3001 2.23999 13.6501V12.3601C2.23999 11.3801 2.93999 10.3301 3.82999 9.98007L9.23999 7.64007V4.80007C9.23999 3.59007 10.09 2.20007 11.17 1.64007C11.69 1.38007 12.29 1.38007 12.8 1.64007C13.89 2.20007 14.74 3.58007 14.74 4.79007V7.63007L20.18 9.97007C21.07 10.3501 21.75 11.3701 21.75 12.3601V13.6501C21.75 14.3101 21.48 14.8601 21 15.1701C20.52 15.4801 19.91 15.5101 19.3 15.2601L14.74 13.2901V15.7601C14.74 15.8001 14.78 15.9001 14.81 15.9301L17.09 18.2201C17.53 18.6601 17.71 19.4301 17.51 20.0201L17.07 21.3401C16.9 21.8301 16.54 22.2201 16.06 22.4101C15.59 22.6001 15.07 22.5801 14.62 22.3601C14.57 22.3301 14.52 22.3001 14.47 22.2601L12.14 20.3001C12.06 20.2301 11.9 20.2401 11.83 20.3001L9.49999 22.2601C9.45999 22.3001 9.40999 22.3301 9.35999 22.3501C9.11999 22.4901 8.84999 22.5501 8.57999 22.5501ZM9.55999 11.6401C9.78999 11.6401 10.01 11.7001 10.2 11.8301C10.55 12.0601 10.75 12.4501 10.75 12.9101V15.7601C10.75 16.1901 10.54 16.7001 10.24 17.0001L7.96999 19.2801C7.92999 19.3301 7.88999 19.4801 7.90999 19.5401L8.34999 20.8701C8.37999 20.9701 8.44999 21.0101 8.48999 21.0301C8.51999 21.0401 8.56999 21.0601 8.62999 21.0401L10.87 19.1501C11.5 18.6101 12.49 18.6101 13.12 19.1501L15.35 21.0301C15.42 21.0401 15.47 21.0301 15.5 21.0201C15.54 21.0001 15.62 20.9601 15.65 20.8601L16.09 19.5401C16.11 19.4701 16.07 19.3201 16.03 19.2801L13.76 17.0001C13.46 16.7201 13.24 16.2001 13.24 15.7601V12.9101C13.24 12.4601 13.43 12.0701 13.77 11.8401C14.11 11.6101 14.55 11.5801 14.97 11.7601L19.89 13.8801C20.04 13.9401 20.14 13.9401 20.17 13.9201C20.2 13.9001 20.24 13.8101 20.24 13.6501V12.3601C20.24 11.9801 19.92 11.4901 19.58 11.3501L14 8.94007C13.56 8.75007 13.25 8.27007 13.25 7.79007V4.79007C13.25 4.13007 12.73 3.28007 12.13 2.98007C12.05 2.94007 11.95 2.94007 11.86 2.98007C11.28 3.28007 10.75 4.15007 10.75 4.80007V7.80007C10.75 8.27007 10.44 8.76007 9.99999 8.95007L4.41999 11.3601C4.06999 11.5001 3.74999 11.9901 3.74999 12.3601V13.6501C3.74999 13.8101 3.78999 13.9001 3.81999 13.9201C3.84999 13.9401 3.94999 13.9401 4.09999 13.8801L9.00999 11.7601C9.18999 11.6801 9.37999 11.6401 9.55999 11.6401Z" fill="black"/>
</svg>
