<svg width="24" height="24" viewBox="0 0 24 24" fill="none" xmlns="http://www.w3.org/2000/svg">
<path d="M12 22.75C6.07 22.75 1.25 17.93 1.25 12C1.25 6.07 6.07 1.25 12 1.25C17.93 1.25 22.75 6.07 22.75 12C22.75 17.93 17.93 22.75 12 22.75ZM12 2.75C6.9 2.75 2.75 6.9 2.75 12C2.75 17.1 6.9 21.25 12 21.25C17.1 21.25 21.25 17.1 21.25 12C21.25 6.9 17.1 2.75 12 2.75Z" fill="black"/>
<path d="M10.7401 16.2799C10.5501 16.2799 10.3601 16.2099 10.2101 16.0599C9.92005 15.7699 9.92005 15.2899 10.2101 14.9999L13.2101 11.9999L10.2101 8.99991C9.92005 8.70991 9.92005 8.22991 10.2101 7.93991C10.5001 7.64991 10.9801 7.64991 11.2701 7.93991L14.8001 11.4699C15.0901 11.7599 15.0901 12.2399 14.8001 12.5299L11.2701 16.0599C11.1201 16.2099 10.9301 16.2799 10.7401 16.2799Z" fill="black"/>
</svg>
