<svg width="24" height="24" viewBox="0 0 24 24" fill="none" xmlns="http://www.w3.org/2000/svg">
<path d="M9.56994 18.8201C9.37994 18.8201 9.18994 18.7501 9.03994 18.6001L2.96994 12.5301C2.67994 12.2401 2.67994 11.7601 2.96994 11.4701L9.03994 5.40012C9.32994 5.11012 9.80994 5.11012 10.0999 5.40012C10.3899 5.69012 10.3899 6.17012 10.0999 6.46012L4.55994 12.0001L10.0999 17.5401C10.3899 17.8301 10.3899 18.3101 10.0999 18.6001C9.95994 18.7501 9.75994 18.8201 9.56994 18.8201Z" fill="black"/>
<path d="M18 12C18 12.3987 17.6791 12.75 17.2804 12.75H13.9331C13.4426 12.75 12.9199 12.4905 12.9199 12V12V12C12.9199 11.5095 13.4426 11.25 13.9331 11.25H17.2804C17.6791 11.25 18 11.6013 18 12V12V12Z" fill="black"/>
<path d="M21 12C21 12.4528 20.6119 12.75 20.1591 12.75H19.8409C19.3881 12.75 19 12.4528 19 12V12V12C19 11.5472 19.3881 11.25 19.8409 11.25H20.1624C20.5798 11.25 21 11.5826 21 12V12V12Z" fill="black"/>
<rect x="2.92004" y="11.25" width="9" height="1.5" rx="0.75" fill="black"/>
</svg>
