<svg width="24" height="24" viewBox="0 0 24 24" fill="none" xmlns="http://www.w3.org/2000/svg">
<path d="M12 19.75C9.38 19.75 7.25 17.62 7.25 15C7.25 12.38 9.38 10.25 12 10.25C14.62 10.25 16.75 12.38 16.75 15C16.75 17.62 14.62 19.75 12 19.75ZM12 11.75C10.21 11.75 8.75 13.21 8.75 15C8.75 16.79 10.21 18.25 12 18.25C13.79 18.25 15.25 16.79 15.25 15C15.25 13.21 13.79 11.75 12 11.75Z" fill="black"/>
<path d="M11.4399 16.54C11.1199 16.54 10.7999 16.42 10.5599 16.17L9.90988 15.52C9.61988 15.23 9.61988 14.75 9.90988 14.46C10.1999 14.17 10.6799 14.17 10.9699 14.46L11.4499 14.94L13.0599 13.46C13.3599 13.18 13.8399 13.2 14.1199 13.5C14.3999 13.8 14.3799 14.28 14.0799 14.56L12.2999 16.2C12.0499 16.43 11.7399 16.54 11.4399 16.54Z" fill="black"/>
<path d="M15.0001 22.75H9.00006C4.38006 22.75 3.52006 20.6 3.30006 18.51L2.55006 12.52C2.44006 11.44 2.40006 9.89 3.45006 8.73C4.35006 7.73 5.84006 7.25 8.00006 7.25H16.0001C18.1701 7.25 19.6601 7.74 20.5501 8.73C21.5901 9.89 21.5601 11.44 21.4501 12.5L20.7001 18.51C20.4801 20.6 19.6201 22.75 15.0001 22.75ZM8.00006 8.75C6.31006 8.75 5.15006 9.08 4.56006 9.74C4.07006 10.28 3.91006 11.11 4.04006 12.35L4.79006 18.34C4.96006 19.94 5.40006 21.26 9.00006 21.26H15.0001C18.6001 21.26 19.0401 19.95 19.2101 18.36L19.9601 12.35C20.0901 11.13 19.9301 10.3 19.4401 9.75C18.8501 9.08 17.6901 8.75 16.0001 8.75H8.00006Z" fill="black"/>
<path d="M16.5 8.63005C16.09 8.63005 15.75 8.29005 15.75 7.88005V6.50005C15.75 5.45005 15.3 4.43005 14.52 3.72005C13.73 3.00005 12.7 2.67005 11.63 2.77005C9.83 2.94005 8.25 4.78005 8.25 6.70005V7.67005C8.25 8.08005 7.91 8.42005 7.5 8.42005C7.09 8.42005 6.75 8.08005 6.75 7.67005V6.69005C6.75 4.00005 8.92 1.52005 11.49 1.27005C12.99 1.13005 14.43 1.60005 15.53 2.61005C16.62 3.60005 17.25 5.02005 17.25 6.50005V7.88005C17.25 8.29005 16.91 8.63005 16.5 8.63005Z" fill="black"/>
</svg>
