<svg width="24" height="24" viewBox="0 0 24 24" fill="none" xmlns="http://www.w3.org/2000/svg">
<path d="M10.7921 2.42993H13.2033C15.8489 2.42993 18.386 3.48087 20.2567 5.35154C22.1274 7.22222 23.1783 9.7594 23.1783 12.4049C23.1783 12.6038 23.0993 12.7946 22.9587 12.9353C22.818 13.0759 22.6272 13.1549 22.4283 13.1549H1.55957C1.36066 13.1549 1.16989 13.0759 1.02924 12.9353C0.888588 12.7946 0.80957 12.6038 0.80957 12.4049C0.80957 11.0944 1.06783 9.79665 1.56959 8.58593C2.07135 7.37522 2.80677 6.27525 3.73383 5.34889C4.66089 4.42253 5.76141 3.68793 6.9725 3.18708C8.18359 2.68623 9.4815 2.42895 10.7921 2.42993Z" stroke="black" stroke-width="1.125" stroke-linecap="round" stroke-linejoin="round"/>
<path d="M22.0981 13.1436H1.90063V15.8173H22.0981V13.1436Z" stroke="black" stroke-width="1.125" stroke-linecap="round" stroke-linejoin="round"/>
<path d="M1.54251 15.8176H22.46C22.5546 15.8176 22.6482 15.8363 22.7355 15.8724C22.8229 15.9086 22.9023 15.9617 22.9691 16.0285C23.036 16.0954 23.089 16.1747 23.1252 16.2621C23.1614 16.3494 23.18 16.4431 23.18 16.5376C23.18 17.8717 22.6503 19.1511 21.7073 20.0948C20.7644 21.0385 19.4853 21.5691 18.1513 21.5701H5.85501C4.52031 21.5701 3.24027 21.0399 2.29649 20.0961C1.35272 19.1524 0.82251 17.8723 0.82251 16.5376C0.82251 16.4431 0.841133 16.3494 0.877317 16.2621C0.9135 16.1747 0.966535 16.0954 1.03339 16.0285C1.10025 15.9617 1.17962 15.9086 1.26698 15.8724C1.35433 15.8363 1.44796 15.8176 1.54251 15.8176Z" stroke="black" stroke-width="1.125" stroke-linecap="round" stroke-linejoin="round"/>
<path d="M13.7516 18.2251L10.4104 15.8176H20.1604L16.8229 18.2251C16.3758 18.5476 15.8385 18.7212 15.2873 18.7212C14.736 18.7212 14.1987 18.5476 13.7516 18.2251Z" stroke="black" stroke-width="1.125" stroke-linecap="round" stroke-linejoin="round"/>
</svg>
