<svg width="24" height="24" viewBox="0 0 24 24" fill="none" xmlns="http://www.w3.org/2000/svg">
<path d="M20 11.7501H3.99998C3.76998 11.7501 3.55998 11.6501 3.41998 11.4701C3.27998 11.3001 3.21998 11.0601 3.26998 10.8401L4.39998 5.44008C4.76998 3.69008 5.51998 2.08008 8.48998 2.08008H15.52C18.49 2.08008 19.24 3.70008 19.61 5.44008L20.74 10.8501C20.79 11.0701 20.73 11.3001 20.59 11.4801C20.44 11.6501 20.23 11.7501 20 11.7501ZM4.91998 10.2501H19.07L18.13 5.75008C17.85 4.44008 17.52 3.58008 15.51 3.58008H8.48998C6.47998 3.58008 6.14998 4.44008 5.86998 5.75008L4.91998 10.2501Z" fill="black"/>
<path d="M19.96 22.75H18.08C16.46 22.75 16.15 21.82 15.95 21.21L15.75 20.61C15.49 19.85 15.46 19.75 14.56 19.75H9.43996C8.53996 19.75 8.47996 19.92 8.24996 20.61L8.04996 21.21C7.83996 21.83 7.53996 22.75 5.91996 22.75H4.03996C3.24996 22.75 2.48996 22.42 1.95996 21.84C1.43996 21.27 1.18996 20.51 1.25996 19.75L1.81996 13.66C1.96996 12.01 2.40996 10.25 5.61996 10.25H18.38C21.59 10.25 22.02 12.01 22.18 13.66L22.74 19.75C22.81 20.51 22.56 21.27 22.04 21.84C21.51 22.42 20.75 22.75 19.96 22.75ZM9.43996 18.25H14.56C16.38 18.25 16.81 19.06 17.17 20.12L17.38 20.74C17.55 21.25 17.55 21.26 18.09 21.26H19.97C20.34 21.26 20.69 21.11 20.94 20.84C21.18 20.58 21.29 20.25 21.26 19.9L20.7 13.81C20.57 12.46 20.41 11.76 18.4 11.76H5.61996C3.59996 11.76 3.43996 12.46 3.31996 13.81L2.75996 19.9C2.72996 20.25 2.83996 20.58 3.07996 20.84C3.31996 21.11 3.67996 21.26 4.04996 21.26H5.92996C6.46996 21.26 6.46996 21.25 6.63996 20.75L6.83996 20.14C7.08996 19.34 7.45996 18.25 9.43996 18.25Z" fill="black"/>
<path d="M4 8.75H3C2.59 8.75 2.25 8.41 2.25 8C2.25 7.59 2.59 7.25 3 7.25H4C4.41 7.25 4.75 7.59 4.75 8C4.75 8.41 4.41 8.75 4 8.75Z" fill="black"/>
<path d="M21 8.75H20C19.59 8.75 19.25 8.41 19.25 8C19.25 7.59 19.59 7.25 20 7.25H21C21.41 7.25 21.75 7.59 21.75 8C21.75 8.41 21.41 8.75 21 8.75Z" fill="black"/>
<path d="M12 5.75C11.59 5.75 11.25 5.41 11.25 5V3C11.25 2.59 11.59 2.25 12 2.25C12.41 2.25 12.75 2.59 12.75 3V5C12.75 5.41 12.41 5.75 12 5.75Z" fill="black"/>
<path d="M13.5 5.75H10.5C10.09 5.75 9.75 5.41 9.75 5C9.75 4.59 10.09 4.25 10.5 4.25H13.5C13.91 4.25 14.25 4.59 14.25 5C14.25 5.41 13.91 5.75 13.5 5.75Z" fill="black"/>
<path d="M9 15.75H6C5.59 15.75 5.25 15.41 5.25 15C5.25 14.59 5.59 14.25 6 14.25H9C9.41 14.25 9.75 14.59 9.75 15C9.75 15.41 9.41 15.75 9 15.75Z" fill="black"/>
<path d="M18 15.75H15C14.59 15.75 14.25 15.41 14.25 15C14.25 14.59 14.59 14.25 15 14.25H18C18.41 14.25 18.75 14.59 18.75 15C18.75 15.41 18.41 15.75 18 15.75Z" fill="black"/>
</svg>
