<svg width="24" height="24" viewBox="0 0 24 24" fill="none" xmlns="http://www.w3.org/2000/svg">
<path d="M16.65 20.75C16.64 20.75 16.62 20.75 16.61 20.75C16.2 20.75 15.86 20.41 15.87 19.99C15.87 19.58 16.21 19.25 16.62 19.25C16.63 19.25 16.65 19.25 16.66 19.25C17.8 19.25 18.89 18.83 19.73 18.05C21.28 16.69 21.39 14.75 20.97 13.38C20.55 12.01 19.39 10.46 17.36 10.2C17.03 10.16 16.77 9.91001 16.71 9.58001C16.31 7.19001 15.02 5.54001 13.08 4.94001C11.06 4.32001 8.72997 4.93001 7.26997 6.46001C5.84997 7.95001 5.51997 10.02 6.33997 12.31C6.47997 12.7 6.27997 13.13 5.88997 13.27C5.49997 13.41 5.06997 13.21 4.92997 12.82C3.91997 10.01 4.37997 7.32001 6.18997 5.43001C8.03997 3.50001 10.98 2.73001 13.53 3.52001C15.86 4.24001 17.51 6.16001 18.1 8.82001C20.14 9.28001 21.77 10.82 22.42 12.95C23.13 15.27 22.48 17.65 20.75 19.17C19.61 20.19 18.16 20.75 16.65 20.75Z" fill="black"/>
<path d="M5.57002 20.75C5.55002 20.75 5.53002 20.75 5.52002 20.75C2.64002 20.55 1.33002 18.29 1.33002 16.28C1.33002 14.27 2.64002 12.02 5.52002 11.81C6.26002 11.8 6.99002 11.97 7.63002 12.29C8.00002 12.48 8.14002 12.93 7.96002 13.3C7.77002 13.67 7.32002 13.81 6.95002 13.63C6.53002 13.41 6.05002 13.32 5.59002 13.31C3.70002 13.45 2.84002 14.9 2.84002 16.28C2.84002 17.66 3.70002 19.11 5.64002 19.25C6.05002 19.28 6.36002 19.64 6.33002 20.05C6.29002 20.45 5.96002 20.75 5.57002 20.75Z" fill="black"/>
<path d="M15.82 10.64C15.55 10.64 15.28 10.49 15.15 10.22C14.96 9.84997 15.11 9.39997 15.49 9.20997C16.1 8.89997 16.79 8.72997 17.47 8.71997C17.85 8.73997 18.23 9.03997 18.23 9.45997C18.24 9.86997 17.91 10.22 17.49 10.22C17.03 10.23 16.57 10.34 16.15 10.55C16.05 10.62 15.93 10.64 15.82 10.64Z" fill="black"/>
<path d="M7.96997 22.7499C7.77997 22.7499 7.58997 22.6799 7.43997 22.5299C7.14997 22.2399 7.14997 21.7599 7.43997 21.4699L9.43997 19.4699C9.72997 19.1799 10.21 19.1799 10.5 19.4699C10.79 19.7599 10.79 20.2399 10.5 20.5299L8.49997 22.5299C8.35997 22.6799 8.16997 22.7499 7.96997 22.7499Z" fill="black"/>
<path d="M11.97 22.7499C11.78 22.7499 11.59 22.6799 11.44 22.5299C11.15 22.2399 11.15 21.7599 11.44 21.4699L13.44 19.4699C13.73 19.1799 14.21 19.1799 14.5 19.4699C14.79 19.7599 14.79 20.2399 14.5 20.5299L12.5 22.5299C12.36 22.6799 12.17 22.7499 11.97 22.7499Z" fill="black"/>
<path d="M11.97 18.7499C11.78 18.7499 11.59 18.6799 11.44 18.5299C11.15 18.2399 11.15 17.7599 11.44 17.4699L13.44 15.4699C13.73 15.1799 14.21 15.1799 14.5 15.4699C14.79 15.7599 14.79 16.2399 14.5 16.5299L12.5 18.5299C12.36 18.6799 12.17 18.7499 11.97 18.7499Z" fill="black"/>
<path d="M7.96997 18.7499C7.77997 18.7499 7.58997 18.6799 7.43997 18.5299C7.14997 18.2399 7.14997 17.7599 7.43997 17.4699L9.43997 15.4699C9.72997 15.1799 10.21 15.1799 10.5 15.4699C10.79 15.7599 10.79 16.2399 10.5 16.5299L8.49997 18.5299C8.35997 18.6799 8.16997 18.7499 7.96997 18.7499Z" fill="black"/>
</svg>
