<svg width="24" height="24" viewBox="0 0 24 24" fill="none" xmlns="http://www.w3.org/2000/svg">
<path d="M12.97 20.75H8.97C8.56 20.75 8.22 20.41 8.22 20C8.22 19.59 8.56 19.25 8.97 19.25H12.97C13.38 19.25 13.72 19.59 13.72 20C13.72 20.41 13.39 20.75 12.97 20.75Z" fill="black"/>
<path d="M16.65 20.75C16.64 20.75 16.62 20.75 16.61 20.75C16.2 20.75 15.86 20.41 15.87 19.99C15.87 19.58 16.21 19.25 16.62 19.25C16.63 19.25 16.65 19.25 16.66 19.25C17.8 19.25 18.89 18.83 19.73 18.05C21.28 16.69 21.39 14.75 20.97 13.38C20.55 12.01 19.39 10.46 17.36 10.2C17.03 10.16 16.77 9.91001 16.71 9.58001C16.31 7.19001 15.02 5.54001 13.08 4.94001C11.06 4.32001 8.73 4.93001 7.27 6.46001C5.85 7.95001 5.52 10.02 6.34 12.31C6.48 12.7 6.28 13.13 5.89 13.27C5.5 13.41 5.07 13.21 4.93 12.82C3.92 10.01 4.38 7.32001 6.19 5.43001C8.04 3.50001 10.99 2.73001 13.53 3.52001C15.86 4.24001 17.51 6.16001 18.1 8.82001C20.14 9.28001 21.77 10.82 22.42 12.95C23.13 15.27 22.48 17.65 20.75 19.17C19.61 20.19 18.16 20.75 16.65 20.75Z" fill="black"/>
<path d="M5.56999 20.75C5.54999 20.75 5.52999 20.75 5.51999 20.75C2.63999 20.55 1.32999 18.29 1.32999 16.28C1.32999 14.27 2.63999 12.02 5.51999 11.81C6.25999 11.8 6.98999 11.97 7.62999 12.29C7.99999 12.48 8.13999 12.93 7.95999 13.3C7.76999 13.67 7.31999 13.81 6.94999 13.63C6.52999 13.41 6.04999 13.32 5.58999 13.31C3.69999 13.45 2.83999 14.9 2.83999 16.28C2.83999 17.66 3.69999 19.11 5.63999 19.25C6.04999 19.28 6.35999 19.64 6.32999 20.05C6.28999 20.45 5.95999 20.75 5.56999 20.75Z" fill="black"/>
<path d="M15.82 10.64C15.55 10.64 15.28 10.49 15.15 10.22C14.96 9.84997 15.11 9.39997 15.49 9.20997C16.1 8.89997 16.79 8.72997 17.47 8.71997C17.86 8.73997 18.23 9.03997 18.23 9.45997C18.24 9.86997 17.91 10.22 17.49 10.22C17.03 10.23 16.57 10.34 16.15 10.55C16.05 10.62 15.93 10.64 15.82 10.64Z" fill="black"/>
</svg>
