<svg width="24" height="24" viewBox="0 0 24 24" fill="none" xmlns="http://www.w3.org/2000/svg">
<path d="M16.65 20.75C16.64 20.75 16.62 20.75 16.61 20.75C16.2 20.75 15.86 20.41 15.87 19.99C15.87 19.58 16.22 19.21 16.63 19.25C17.79 19.25 18.89 18.83 19.74 18.05C21.29 16.69 21.4 14.75 20.98 13.38C20.56 12.01 19.39 10.46 17.37 10.2C17.04 10.16 16.78 9.91001 16.72 9.58001C16.33 7.19001 15.03 5.54001 13.09 4.94001C11.07 4.32001 8.73998 4.93001 7.27998 6.46001C5.85998 7.95001 5.52998 10.02 6.34998 12.31C6.48998 12.7 6.28998 13.13 5.89998 13.27C5.50998 13.41 5.07998 13.21 4.93998 12.82C3.92998 10.01 4.38998 7.32001 6.19998 5.43001C8.04998 3.50001 10.99 2.73001 13.54 3.52001C15.87 4.24001 17.52 6.16001 18.11 8.82001C20.15 9.28001 21.78 10.82 22.43 12.95C23.14 15.27 22.5 17.65 20.76 19.17C19.61 20.19 18.16 20.75 16.65 20.75Z" fill="black"/>
<path d="M5.57002 20.7501C5.55002 20.7501 5.53002 20.7501 5.52002 20.7501C2.64002 20.5501 1.33002 18.2901 1.33002 16.2801C1.33002 14.2701 2.64002 12.0201 5.52002 11.8101C6.28002 11.8201 6.99002 11.9701 7.63002 12.2901C8.00002 12.4801 8.14002 12.9301 7.96002 13.3001C7.77002 13.6701 7.32002 13.8101 6.95002 13.6301C6.53002 13.4101 6.05002 13.3101 5.59002 13.3101C3.70002 13.4501 2.84002 14.9001 2.84002 16.2801C2.84002 17.6601 3.70002 19.1101 5.63002 19.2501C6.04002 19.2801 6.35002 19.6401 6.33002 20.0501C6.29002 20.4501 5.96002 20.7501 5.57002 20.7501Z" fill="black"/>
<path d="M15.82 10.64C15.54 10.64 15.28 10.49 15.15 10.22C14.96 9.84997 15.11 9.39997 15.49 9.20997C16.1 8.89997 16.79 8.72997 17.47 8.71997H17.48C17.89 8.71997 18.22 9.04997 18.23 9.45997C18.24 9.86997 17.91 10.22 17.49 10.22C17.03 10.23 16.57 10.34 16.15 10.55C16.04 10.62 15.93 10.64 15.82 10.64Z" fill="black"/>
<path d="M10.61 22.6199C10.48 22.6199 10.34 22.5999 10.21 22.5499C9.77 22.3799 9.48 21.9699 9.48 21.4999V19.9199H9.23C8.48 19.9199 8.21 19.4799 8.12 19.2999C8.04 19.0999 7.9 18.5999 8.39 18.0499L10.84 15.2599C11.15 14.9099 11.64 14.7799 12.08 14.9499C12.52 15.1199 12.81 15.5299 12.81 15.9999V17.5799H13.06C13.8 17.5799 14.08 18.0199 14.17 18.1999C14.26 18.3799 14.4 18.8799 13.91 19.4399L11.46 22.2299C11.23 22.4799 10.92 22.6199 10.61 22.6199ZM10.06 18.4099H10.23C10.64 18.4099 10.98 18.7499 10.98 19.1599V20.4899L12.22 19.0799H12.05C11.64 19.0799 11.3 18.7399 11.3 18.3299V16.9999L10.06 18.4099Z" fill="black"/>
</svg>
