<svg width="24" height="24" viewBox="0 0 24 24" fill="none" xmlns="http://www.w3.org/2000/svg">
<path d="M6.19005 22.0601C5.19005 22.0601 4.22005 21.6701 3.45005 20.9201C2.20005 19.7001 1.90005 17.9001 2.68005 16.3401L4.30005 13.1001C4.64005 12.4201 4.64005 11.6001 4.30005 10.9101L2.68005 7.66009C1.90005 6.10009 2.20005 4.30009 3.45005 3.08009C4.70005 1.86009 6.50005 1.59009 8.05005 2.41009L19.6401 8.51009C20.9401 9.19009 21.7501 10.5301 21.7501 12.0001C21.7501 13.4701 20.9401 14.8101 19.6401 15.4901L8.05005 21.5901C7.45005 21.9101 6.82005 22.0601 6.19005 22.0601ZM6.20005 3.44009C5.51005 3.44009 4.91005 3.76009 4.50005 4.16009C3.88005 4.76009 3.44005 5.83009 4.02005 7.00009L5.64005 10.2401C6.19005 11.3501 6.19005 12.6601 5.64005 13.7701L4.02005 17.0101C3.43005 18.1801 3.88005 19.2501 4.50005 19.8501C5.12005 20.4501 6.19005 20.8801 7.35005 20.2701L18.9401 14.1701C19.7601 13.7401 20.2501 12.9301 20.2501 12.0101C20.2501 11.0901 19.7601 10.2801 18.9401 9.85009L7.35005 3.73009C6.95005 3.52009 6.56005 3.44009 6.20005 3.44009Z" fill="black"/>
</svg>
