<svg width="24" height="24" viewBox="0 0 24 24" fill="none" xmlns="http://www.w3.org/2000/svg">
<path d="M17.81 22.0601C17.18 22.0601 16.55 21.9101 15.95 21.5901L4.36 15.4901C3.06 14.8101 2.25 13.4701 2.25 12.0001C2.25 10.5301 3.06 9.19012 4.36 8.51012L15.95 2.41012C17.5 1.60012 19.3 1.86012 20.55 3.08012C21.8 4.30012 22.1 6.10012 21.32 7.66012L19.7 10.9001C19.36 11.5801 19.36 12.4001 19.7 13.0901L21.32 16.3301C22.1 17.8901 21.8 19.6901 20.55 20.9101C19.78 21.6701 18.81 22.0601 17.81 22.0601ZM17.8 3.44012C17.44 3.44012 17.05 3.53012 16.65 3.74012L5.06 9.84012C4.24 10.2701 3.75 11.0801 3.75 12.0001C3.75 12.9201 4.24 13.7301 5.06 14.1601L16.65 20.2601C17.81 20.8701 18.89 20.4501 19.5 19.8401C20.12 19.2401 20.56 18.1701 19.98 17.0001L18.36 13.7601C17.81 12.6501 17.81 11.3401 18.36 10.2301L19.98 6.99012C20.57 5.82012 20.12 4.75012 19.5 4.15012C19.1 3.76012 18.5 3.44012 17.8 3.44012Z" fill="black"/>
</svg>
