<svg width="24" height="24" viewBox="0 0 24 24" fill="none" xmlns="http://www.w3.org/2000/svg">
<path d="M12.0001 21.7501C10.5301 21.7501 9.19009 20.9401 8.51009 19.6401L2.41009 8.05005C1.59009 6.50005 1.86009 4.70005 3.08009 3.45005C4.30009 2.20005 6.10009 1.90005 7.66009 2.68005L10.9001 4.30005C11.5801 4.64005 12.4001 4.64005 13.0901 4.30005L16.3301 2.68005C17.9001 1.90005 19.7001 2.20005 20.9201 3.45005C22.1401 4.70005 22.4101 6.50005 21.5901 8.05005L15.4901 19.6401C14.8101 20.9401 13.4701 21.7501 12.0001 21.7501ZM5.88009 3.75005C5.17009 3.75005 4.55009 4.09005 4.15009 4.50005C3.55009 5.12005 3.12009 6.19005 3.73009 7.35005L9.83009 18.9401C10.2601 19.7601 11.0701 20.2501 11.9901 20.2501C12.9101 20.2501 13.7201 19.7601 14.1501 18.9401L20.2501 7.35005C20.8601 6.19005 20.4401 5.11005 19.8301 4.50005C19.2301 3.89005 18.1701 3.44005 16.9901 4.02005L13.7501 5.64005C12.6401 6.19005 11.3301 6.19005 10.2201 5.64005L6.99009 4.02005C6.61009 3.83005 6.23009 3.75005 5.88009 3.75005Z" fill="black"/>
</svg>
