<svg width="24" height="24" viewBox="0 0 24 24" fill="none" xmlns="http://www.w3.org/2000/svg">
<path d="M15 22.75H9C3.57 22.75 1.25 20.43 1.25 15V9C1.25 3.57 3.57 1.25 9 1.25H14C14.41 1.25 14.75 1.59 14.75 2C14.75 2.41 14.41 2.75 14 2.75H9C4.39 2.75 2.75 4.39 2.75 9V15C2.75 19.61 4.39 21.25 9 21.25H15C19.61 21.25 21.25 19.61 21.25 15V10C21.25 9.59 21.59 9.25 22 9.25C22.41 9.25 22.75 9.59 22.75 10V15C22.75 20.43 20.43 22.75 15 22.75Z" fill="black"/>
<path d="M22 10.75H18C14.58 10.75 13.25 9.41999 13.25 5.99999V1.99999C13.25 1.69999 13.43 1.41999 13.71 1.30999C13.99 1.18999 14.31 1.25999 14.53 1.46999L22.53 9.46999C22.74 9.67999 22.81 10.01 22.69 10.29C22.57 10.57 22.3 10.75 22 10.75ZM14.75 3.80999V5.99999C14.75 8.57999 15.42 9.24999 18 9.24999H20.19L14.75 3.80999Z" fill="black"/>
<path d="M9.41987 18.9501C8.54987 18.9501 6.52987 17.8901 5.90987 15.9501C5.47987 14.6101 5.97987 12.8601 7.52987 12.3601C8.17987 12.1501 8.86987 12.2401 9.41987 12.5801C9.95987 12.2401 10.6599 12.1501 11.3199 12.3601C12.8699 12.8601 13.3699 14.6101 12.9399 15.9501C12.3099 17.9301 10.1899 18.9501 9.41987 18.9501ZM7.32987 15.5001C7.74987 16.8101 9.16987 17.4301 9.42987 17.4501C9.70987 17.4201 11.1099 16.7301 11.4999 15.5001C11.7099 14.8401 11.4999 14.0001 10.8499 13.7901C10.5799 13.7001 10.2099 13.7501 10.0399 14.0101C9.89987 14.2201 9.67987 14.3401 9.42987 14.3501C9.15987 14.3501 8.94987 14.2401 8.80987 14.0401C8.59987 13.7501 8.23987 13.7101 7.97987 13.8001C7.33987 14.0001 7.11987 14.8401 7.32987 15.5001Z" fill="black"/>
</svg>
