<svg width="24" height="24" viewBox="0 0 24 24" fill="none" xmlns="http://www.w3.org/2000/svg">
<path d="M13.4 17.4201H10.89C9.25 17.4201 7.92 16.0401 7.92 14.3401C7.92 13.9301 8.26 13.5901 8.67 13.5901C9.08 13.5901 9.42 13.9301 9.42 14.3401C9.42 15.2101 10.08 15.9201 10.89 15.9201H13.4C14.05 15.9201 14.59 15.3401 14.59 14.6401C14.59 13.7701 14.28 13.6001 13.77 13.4201L9.74 12.0001C8.96 11.7301 7.91 11.1501 7.91 9.36008C7.91 7.82008 9.12 6.58008 10.6 6.58008H13.11C14.75 6.58008 16.08 7.96008 16.08 9.66008C16.08 10.0701 15.74 10.4101 15.33 10.4101C14.92 10.4101 14.58 10.0701 14.58 9.66008C14.58 8.79008 13.92 8.08008 13.11 8.08008H10.6C9.95 8.08008 9.41 8.66008 9.41 9.36008C9.41 10.2301 9.72 10.4001 10.23 10.5801L14.26 12.0001C15.04 12.2701 16.09 12.8501 16.09 14.6401C16.08 16.1701 14.88 17.4201 13.4 17.4201Z" fill="black"/>
<path d="M12 18.75C11.59 18.75 11.25 18.41 11.25 18V6C11.25 5.59 11.59 5.25 12 5.25C12.41 5.25 12.75 5.59 12.75 6V18C12.75 18.41 12.41 18.75 12 18.75Z" fill="black"/>
<path d="M15 22.75H9C3.57 22.75 1.25 20.43 1.25 15V9C1.25 3.57 3.57 1.25 9 1.25H15C20.43 1.25 22.75 3.57 22.75 9V15C22.75 20.43 20.43 22.75 15 22.75ZM9 2.75C4.39 2.75 2.75 4.39 2.75 9V15C2.75 19.61 4.39 21.25 9 21.25H15C19.61 21.25 21.25 19.61 21.25 15V9C21.25 4.39 19.61 2.75 15 2.75H9Z" fill="black"/>
</svg>
