<svg width="24" height="24" viewBox="0 0 24 24" fill="none" xmlns="http://www.w3.org/2000/svg">
<path d="M12.0001 8.90996C11.5101 8.90996 11.0301 8.72995 10.6601 8.35995L7.99013 5.68996C7.45013 5.14996 7.28016 4.33995 7.58016 3.61995C7.87016 2.90995 8.56016 2.44995 9.33016 2.44995H14.6801C15.4501 2.44995 16.1401 2.90995 16.4301 3.61995C16.7201 4.32995 16.5602 5.13996 16.0202 5.68996L13.3501 8.35995C12.9701 8.71995 12.4901 8.90996 12.0001 8.90996ZM9.05013 4.61995L11.7201 7.28995C11.8701 7.43995 12.1202 7.43995 12.2802 7.28995L14.9502 4.61995C15.1202 4.44995 15.0702 4.25996 15.0302 4.18996C14.9902 4.11996 14.9001 3.94995 14.6701 3.94995H9.32015C9.08015 3.94995 8.99016 4.11996 8.96016 4.18996C8.93016 4.25996 8.88013 4.44995 9.05013 4.61995Z" fill="black"/>
<path d="M14.6698 21.5601H9.31985C8.54985 21.5601 7.85985 21.1001 7.56985 20.3901C7.27985 19.6801 7.43983 18.8701 7.97983 18.3201L10.6499 15.6501C11.3699 14.9301 12.6099 14.9301 13.3299 15.6501L15.9998 18.3201C16.5398 18.8601 16.7098 19.6801 16.4098 20.3901C16.1298 21.1001 15.4398 21.5601 14.6698 21.5601ZM9.04983 19.3801C8.87983 19.5501 8.92982 19.7401 8.96982 19.8101C9.00982 19.8801 9.09986 20.0501 9.32986 20.0501H14.6798C14.9198 20.0501 15.0098 19.8801 15.0398 19.8101C15.0698 19.7401 15.1199 19.5501 14.9599 19.3801L12.2898 16.7101C12.1398 16.5601 11.8898 16.5601 11.7298 16.7101L9.04983 19.3801Z" fill="black"/>
<path d="M5.23014 17.2499C5.17014 17.2499 5.10019 17.2499 5.03019 17.2399C4.49019 17.1799 4.02014 16.8899 3.73014 16.4299L1.52018 12.9499C1.15018 12.3699 1.15018 11.6299 1.52018 11.0499L3.73014 7.56994C4.02014 7.11994 4.49019 6.81993 5.03019 6.75993C5.56019 6.69993 6.09013 6.88994 6.47013 7.26994L9.95017 10.7499C10.2802 11.0799 10.4701 11.5299 10.4701 11.9999C10.4701 12.4699 10.2902 12.9199 9.95017 13.2499L6.48014 16.7299C6.15014 17.0599 5.70014 17.2499 5.23014 17.2499ZM2.79013 11.8599C2.73013 11.9499 2.73013 12.0599 2.79013 12.1499L5.00016 15.6299C5.06016 15.7199 5.15017 15.7499 5.20017 15.7499C5.25017 15.7499 5.34014 15.7499 5.42014 15.6699L8.90018 12.1899C8.97018 12.1199 8.98014 12.0399 8.98014 11.9999C8.98014 11.9599 8.97018 11.8799 8.90018 11.8099L5.42014 8.32994C5.34014 8.24994 5.25017 8.24993 5.20017 8.24993C5.15017 8.25993 5.06016 8.27993 5.00016 8.36993L2.79013 11.8599Z" fill="black"/>
<path d="M18.77 17.2499C18.3 17.2499 17.86 17.0699 17.52 16.7299L14.04 13.2499C13.71 12.9199 13.52 12.4699 13.52 11.9999C13.52 11.5299 13.7 11.0799 14.04 10.7499L17.51 7.26994C17.89 6.88994 18.42 6.69993 18.95 6.75993C19.49 6.81993 19.96 7.10994 20.25 7.56994L22.46 11.0499C22.83 11.6299 22.83 12.3699 22.46 12.9499L20.25 16.4299C19.96 16.8899 19.49 17.1799 18.95 17.2399C18.9 17.2399 18.83 17.2499 18.77 17.2499ZM18.77 8.25993C18.72 8.25993 18.65 8.26993 18.58 8.33993L15.1 11.8199C15.03 11.8899 15.02 11.9699 15.02 12.0099C15.02 12.0499 15.03 12.1299 15.1 12.1999L18.58 15.6799C18.66 15.7599 18.75 15.7599 18.8 15.7599C18.85 15.7499 18.94 15.7299 19 15.6399L21.21 12.1599C21.27 12.0699 21.27 11.9599 21.21 11.8699L19 8.38993C18.94 8.29993 18.85 8.26994 18.8 8.26994C18.79 8.25994 18.78 8.25993 18.77 8.25993Z" fill="black"/>
</svg>
