<svg width="24" height="24" viewBox="0 0 24 24" fill="none" xmlns="http://www.w3.org/2000/svg">
<path d="M11.0698 18.1701C10.8998 18.1701 10.7398 18.1401 10.5698 18.0801C10.0198 17.8701 9.65983 17.3601 9.65983 16.7701V13.4701H8.67983C8.11983 13.4701 7.62983 13.1501 7.39983 12.6501C7.16983 12.1401 7.25983 11.5701 7.62983 11.1501L11.8898 6.31012C12.2798 5.87012 12.8798 5.72012 13.4298 5.93012C13.9798 6.14012 14.3398 6.65012 14.3398 7.24012V10.5401H15.3298C15.8898 10.5401 16.3798 10.8601 16.6098 11.3601C16.8398 11.8701 16.7498 12.4401 16.3798 12.8601L12.1198 17.7001C11.8398 18.0001 11.4598 18.1701 11.0698 18.1701ZM8.89983 11.9701H10.4098C10.8198 11.9701 11.1598 12.3101 11.1598 12.7201V16.5001L15.0998 12.0301H13.5898C13.1798 12.0301 12.8398 11.6901 12.8398 11.2801V7.50012L8.89983 11.9701Z" fill="black"/>
<path d="M11.9702 22.75C6.05021 22.75 1.22021 17.93 1.22021 12C1.22021 6.07 6.05021 1.25 11.9702 1.25C17.8902 1.25 22.7202 6.07 22.7202 12C22.7202 17.93 17.9002 22.75 11.9702 22.75ZM11.9702 2.75C6.87021 2.75 2.72021 6.9 2.72021 12C2.72021 17.1 6.87021 21.25 11.9702 21.25C17.0702 21.25 21.2202 17.1 21.2202 12C21.2202 6.9 17.0702 2.75 11.9702 2.75Z" fill="black"/>
</svg>
