<svg width="24" height="24" viewBox="0 0 24 24" fill="none" xmlns="http://www.w3.org/2000/svg">
<path d="M12.1599 11.62C12.1299 11.62 12.1099 11.62 12.0799 11.62C12.0299 11.61 11.9599 11.61 11.8999 11.62C8.99994 11.53 6.80994 9.25 6.80994 6.44C6.80994 3.58 9.13994 1.25 11.9999 1.25C14.8599 1.25 17.1899 3.58 17.1899 6.44C17.1799 9.25 14.9799 11.53 12.1899 11.62C12.1799 11.62 12.1699 11.62 12.1599 11.62ZM11.9999 2.75C9.96994 2.75 8.30994 4.41 8.30994 6.44C8.30994 8.44 9.86994 10.05 11.8599 10.12C11.9099 10.11 12.0499 10.11 12.1799 10.12C14.1399 10.03 15.6799 8.42 15.6899 6.44C15.6899 4.41 14.0299 2.75 11.9999 2.75Z" fill="black"/>
<path d="M12.17 22.55C10.21 22.55 8.23998 22.05 6.74998 21.05C5.35998 20.13 4.59998 18.87 4.59998 17.5C4.59998 16.13 5.35998 14.86 6.74998 13.93C9.74998 11.94 14.61 11.94 17.59 13.93C18.97 14.85 19.74 16.11 19.74 17.48C19.74 18.85 18.98 20.12 17.59 21.05C16.09 22.05 14.13 22.55 12.17 22.55ZM7.57998 15.19C6.61998 15.83 6.09998 16.65 6.09998 17.51C6.09998 18.36 6.62998 19.18 7.57998 19.81C10.07 21.48 14.27 21.48 16.76 19.81C17.72 19.17 18.24 18.35 18.24 17.49C18.24 16.64 17.71 15.82 16.76 15.19C14.27 13.53 10.07 13.53 7.57998 15.19Z" fill="black"/>
</svg>
