<svg width="24" height="24" viewBox="0 0 24 24" fill="none" xmlns="http://www.w3.org/2000/svg">
<path d="M19.41 21.75H4.59005C4.33005 21.75 4.08003 21.61 3.95003 21.39L0.770039 16.1C0.630039 15.87 0.630039 15.57 0.770039 15.34L8.18001 2.63C8.31001 2.4 8.56004 2.26001 8.83004 2.26001H15.18C15.45 2.26001 15.69 2.4 15.83 2.63C18.62 7.41001 22.83 14.62 23.19 15.18C23.29 15.31 23.34 15.46 23.34 15.63C23.34 15.81 23.28 15.97 23.17 16.1C22.91 16.49 21.15 19.52 20.06 21.38C19.93 21.61 19.68 21.75 19.41 21.75ZM5.01003 20.25H18.98C20.47 17.69 21.27 16.33 21.76 15.61C21.19 14.77 20.19 13.07 18.22 9.70001L14.75 3.75H9.26003L2.29 15.7L5.01003 20.25ZM22.37 16.33V16.35V16.33Z" fill="black"/>
<path d="M19.4097 21.7499C19.1497 21.7499 18.8998 21.6199 18.7598 21.3799L8.16973 3.37992C7.95973 3.01992 8.07975 2.55992 8.43975 2.34992C8.79975 2.13992 9.25972 2.25991 9.46972 2.61991L20.0597 20.6199C20.2697 20.9799 20.1497 21.4399 19.7897 21.6499C19.6697 21.7199 19.5397 21.7499 19.4097 21.7499Z" fill="black"/>
<path d="M4.59027 21.7499C4.46027 21.7499 4.33026 21.7199 4.21026 21.6499C3.85026 21.4399 3.73024 20.9799 3.94024 20.6199L14.5303 2.61991C14.7403 2.25991 15.2002 2.13992 15.5602 2.34992C15.9202 2.55992 16.0403 3.01992 15.8303 3.37992L5.24023 21.3799C5.09023 21.6199 4.84027 21.7499 4.59027 21.7499Z" fill="black"/>
<path d="M22 16.46H1.5C1.09 16.46 0.75 16.12 0.75 15.71C0.75 15.3 1.09 14.96 1.5 14.96H22C22.41 14.96 22.75 15.3 22.75 15.71C22.75 16.12 22.41 16.46 22 16.46Z" fill="black"/>
</svg>
