<svg width="24" height="24" viewBox="0 0 24 24" fill="none" xmlns="http://www.w3.org/2000/svg">
<path d="M12 22.7491C6.79996 22.7491 2.57996 18.5191 2.57996 13.3291C2.57996 11.4591 3.12996 9.64914 4.16996 8.08914C4.39996 7.74914 4.86996 7.64914 5.20996 7.87914C5.54996 8.10914 5.64996 8.57914 5.41996 8.91914C4.54996 10.2191 4.08996 11.7491 4.08996 13.3191C4.08996 17.6891 7.63996 21.2391 12.01 21.2391C16.38 21.2391 19.93 17.6891 19.93 13.3191C19.93 8.94914 16.37 5.39914 12 5.39914C11.08 5.39914 10.18 5.52914 9.32996 5.78914C8.92996 5.90914 8.50996 5.68914 8.38996 5.28914C8.26996 4.88914 8.48996 4.46914 8.88996 4.34914C9.88996 4.04914 10.93 3.88914 12 3.88914C17.2 3.88914 21.42 8.11914 21.42 13.3091C21.42 18.4991 17.2 22.7491 12 22.7491Z" fill="black"/>
<path d="M7.86996 6.06914C7.69996 6.06914 7.51996 6.00914 7.37996 5.88914C7.05996 5.60914 7.02996 5.13914 7.29996 4.82914L10.19 1.50914C10.46 1.19914 10.94 1.15914 11.25 1.43914C11.56 1.70914 11.59 2.18914 11.32 2.49914L8.42996 5.80914C8.27996 5.97914 8.06996 6.06914 7.86996 6.06914Z" fill="black"/>
<path d="M11.24 8.52914C11.09 8.52914 10.93 8.47914 10.8 8.38914L7.41996 5.91914C7.08996 5.67914 7.01996 5.20914 7.25996 4.87914C7.49996 4.53914 7.96996 4.46914 8.30996 4.70914L11.68 7.16914C12.01 7.40914 12.09 7.87914 11.84 8.21914C11.7 8.42914 11.47 8.52914 11.24 8.52914Z" fill="black"/>
<path d="M14.4576 16.9991C14.3644 16.9991 14.2711 16.9762 14.185 16.9152L11.9612 15.503C11.4089 15.1518 11 14.3808 11 13.7014V10.5717C11 10.2587 11.2439 9.99914 11.538 9.99914C11.8321 9.99914 12.076 10.2587 12.076 10.5717V13.7014C12.076 13.9762 12.2912 14.3808 12.5136 14.5182L14.7374 15.9304C14.9957 16.0907 15.0746 16.4419 14.9239 16.7167C14.8163 16.8999 14.637 16.9991 14.4576 16.9991Z" fill="black"/>
</svg>
