<svg width="24" height="24" viewBox="0 0 24 24" fill="none" xmlns="http://www.w3.org/2000/svg">
<path d="M18.36 22.7499H5.58999C4.06999 22.7499 2.67999 21.9799 1.87999 20.6799C1.07999 19.3799 1.00999 17.7999 1.68999 16.4299L3.40999 12.9799C3.96999 11.8599 4.86999 11.1599 5.87999 11.0499C6.88999 10.9399 7.91999 11.4399 8.69999 12.4099L8.91999 12.6899C9.35999 13.2299 9.86999 13.5199 10.37 13.4699C10.87 13.4299 11.33 13.0699 11.67 12.4599L13.56 9.04993C14.34 7.63993 15.38 6.90993 16.51 6.95993C17.63 7.01993 18.59 7.85993 19.23 9.33993L22.36 16.6499C22.94 17.9999 22.8 19.5399 21.99 20.7699C21.19 22.0199 19.83 22.7499 18.36 22.7499ZM6.15999 12.5499C6.11999 12.5499 6.07999 12.5499 6.03999 12.5599C5.53999 12.6099 5.07999 13.0099 4.74999 13.6599L3.02999 17.1099C2.57999 17.9999 2.62999 19.0499 3.14999 19.8999C3.66999 20.7499 4.58999 21.2599 5.58999 21.2599H18.35C19.33 21.2599 20.2 20.7899 20.74 19.9699C21.28 19.1499 21.37 18.1699 20.98 17.2699L17.85 9.95993C17.47 9.05993 16.94 8.50993 16.43 8.48993C15.96 8.45993 15.35 8.95993 14.87 9.80993L12.98 13.2199C12.4 14.2599 11.49 14.9099 10.5 14.9999C9.50999 15.0799 8.49999 14.5999 7.74999 13.6599L7.52999 13.3799C7.10999 12.8299 6.62999 12.5499 6.15999 12.5499Z" fill="black"/>
<path d="M6.96997 8.75C4.90997 8.75 3.21997 7.07 3.21997 5C3.21997 2.93 4.89997 1.25 6.96997 1.25C9.03997 1.25 10.72 2.93 10.72 5C10.72 7.07 9.03997 8.75 6.96997 8.75ZM6.96997 2.75C5.72997 2.75 4.71997 3.76 4.71997 5C4.71997 6.24 5.72997 7.25 6.96997 7.25C8.20997 7.25 9.21997 6.24 9.21997 5C9.21997 3.76 8.20997 2.75 6.96997 2.75Z" fill="black"/>
</svg>
