<svg width="24" height="24" viewBox="0 0 24 24" fill="none" xmlns="http://www.w3.org/2000/svg">
<path d="M12 22.4299C11.52 22.4299 11.04 22.2999 10.61 22.0499L4.10999 18.2299C3.26999 17.7399 2.75 16.8299 2.75 15.8599V8.14988C2.75 7.17988 3.26999 6.26988 4.10999 5.77988L10.61 1.95989C11.47 1.44989 12.54 1.44989 13.4 1.95989L19.9 5.77988C20.74 6.26988 21.26 7.17988 21.26 8.14988V15.8599C21.26 16.8299 20.74 17.7399 19.9 18.2299L13.4 22.0499C12.96 22.2999 12.48 22.4299 12 22.4299ZM11.37 3.23989L4.87 7.05988C4.49 7.27988 4.25 7.69989 4.25 8.13989V15.8499C4.25 16.2899 4.49 16.6999 4.87 16.9299L11.37 20.7499C11.76 20.9799 12.25 20.9799 12.64 20.7499L19.14 16.9299C19.52 16.7099 19.76 16.2899 19.76 15.8499V8.13989C19.76 7.69989 19.52 7.28988 19.14 7.05988L12.64 3.23989C12.24 3.00989 11.76 3.00989 11.37 3.23989Z" fill="black"/>
<path d="M12.0002 18.7501C11.8702 18.7501 11.7302 18.7101 11.6102 18.6401L6.61023 15.6401C6.25023 15.4301 6.14022 14.9701 6.35022 14.6101C6.56022 14.2501 7.02025 14.1401 7.38025 14.3501L11.9902 17.1201L15.5303 14.9901L6.60022 9.63012C6.37022 9.49012 6.24023 9.25012 6.24023 8.99012C6.24023 8.73012 6.38022 8.48012 6.60022 8.35012L11.6002 5.35012C11.8402 5.21012 12.1402 5.21012 12.3702 5.35012L17.3702 8.35012C17.7302 8.56012 17.8402 9.02012 17.6302 9.38012C17.4202 9.73012 16.9602 9.85011 16.6002 9.64011L11.9902 6.87011L8.45026 9.00011L17.3802 14.3601C17.6102 14.5001 17.7402 14.7401 17.7402 15.0001C17.7402 15.2601 17.6002 15.5101 17.3802 15.6401L12.3802 18.6401C12.2702 18.7101 12.1302 18.7501 12.0002 18.7501Z" fill="black"/>
<path d="M9.49948 12.7499C9.30948 12.7499 9.11945 12.6799 8.96945 12.5299C8.67945 12.2399 8.67945 11.7599 8.96945 11.4699L10.9695 9.46994C11.2595 9.17994 11.7395 9.17994 12.0295 9.46994C12.3195 9.75994 12.3195 10.2399 12.0295 10.5299L10.0295 12.5299C9.87951 12.6799 9.68948 12.7499 9.49948 12.7499Z" fill="black"/>
<path d="M12.4995 14.7499C12.3095 14.7499 12.1195 14.6799 11.9695 14.5299C11.6795 14.2399 11.6795 13.7599 11.9695 13.4699L13.9695 11.4699C14.2595 11.1799 14.7395 11.1799 15.0295 11.4699C15.3195 11.7599 15.3195 12.2399 15.0295 12.5299L13.0295 14.5299C12.8795 14.6799 12.6895 14.7499 12.4995 14.7499Z" fill="black"/>
</svg>
