<svg width="24" height="24" viewBox="0 0 24 24" fill="none" xmlns="http://www.w3.org/2000/svg">
<path d="M8.99 21.5001C7.33 21.5001 5.66 20.8701 4.39 19.6001C1.86 17.0601 1.86 12.9401 4.39 10.4101C4.68 10.1201 5.16 10.1201 5.45 10.4101C5.74 10.7001 5.74 11.1801 5.45 11.4701C3.5 13.4201 3.5 16.5901 5.45 18.5401C7.4 20.4901 10.57 20.4901 12.52 18.5401C13.46 17.6001 13.98 16.3401 13.98 15.0001C13.98 13.6701 13.46 12.4101 12.52 11.4601C12.23 11.1701 12.23 10.6901 12.52 10.4001C12.81 10.1101 13.29 10.1101 13.58 10.4001C14.81 11.6301 15.48 13.2601 15.48 15.0001C15.48 16.7401 14.8 18.3701 13.58 19.6001C12.32 20.8701 10.66 21.5001 8.99 21.5001Z" fill="black"/>
<path d="M19.07 14.16C18.88 14.16 18.69 14.09 18.54 13.94C18.25 13.65 18.25 13.17 18.54 12.88C20.59 10.83 20.59 7.49999 18.54 5.45999C16.49 3.40999 13.16 3.40999 11.12 5.45999C10.13 6.44999 9.58 7.76999 9.58 9.16999C9.58 10.57 10.13 11.89 11.12 12.88C11.41 13.17 11.41 13.65 11.12 13.94C10.83 14.23 10.35 14.23 10.06 13.94C8.79 12.67 8.08 10.97 8.08 9.16999C8.08 7.36999 8.78 5.66999 10.06 4.39999C12.69 1.76999 16.97 1.76999 19.61 4.39999C22.24 7.02999 22.24 11.32 19.61 13.95C19.46 14.09 19.26 14.16 19.07 14.16Z" fill="black"/>
</svg>
