<svg width="24" height="24" viewBox="0 0 24 24" fill="none" xmlns="http://www.w3.org/2000/svg">
<path d="M10.4199 13.75C10.2899 13.75 10.1599 13.72 10.0399 13.65C8.85988 12.96 8.12988 11.68 8.12988 10.32C8.12988 8.18995 9.85988 6.44995 11.9999 6.44995C13.3699 6.44995 14.6499 7.17995 15.3399 8.36995C15.5499 8.72995 15.4299 9.18995 15.0699 9.39995C14.7099 9.60995 14.2499 9.48995 14.0399 9.12995C13.6199 8.38995 12.8399 7.93995 11.9999 7.93995C10.6999 7.93995 9.62988 8.99995 9.62988 10.31C9.62988 11.15 10.0799 11.93 10.7999 12.35C11.1599 12.56 11.2799 13.02 11.0699 13.38C10.9299 13.61 10.6799 13.75 10.4199 13.75Z" fill="black"/>
<path d="M5.98999 18.5601C5.75999 18.5601 5.52999 18.4501 5.37999 18.2501C2.97999 14.9601 2.13999 11.6201 2.88999 8.32007C3.66999 4.89007 6.18999 2.35007 9.62999 1.52007C13.23 0.650071 17.01 1.82007 19.24 4.49007C19.51 4.81007 19.46 5.28007 19.15 5.55007C18.83 5.82007 18.36 5.77007 18.09 5.45007C16.22 3.21007 13.04 2.24007 9.97999 2.97007C7.05999 3.67007 5.00999 5.74007 4.34999 8.64007C3.69999 11.5001 4.44999 14.4301 6.58999 17.3501C6.82999 17.6801 6.75999 18.1501 6.42999 18.4001C6.29999 18.5101 6.13999 18.5601 5.98999 18.5601Z" fill="black"/>
<path d="M12.0001 22.76C10.5201 22.76 9.03006 22.2 7.87006 21.09C7.57006 20.8 7.56006 20.33 7.85006 20.03C8.14006 19.73 8.61006 19.72 8.91006 20.01C10.6401 21.68 13.3501 21.68 15.0801 20.01C17.7501 17.44 20.7101 13.38 19.6501 8.67002C19.5601 8.27002 19.8101 7.86002 20.2201 7.77002C20.6201 7.68002 21.0301 7.93002 21.1201 8.34002C22.3401 13.73 19.0801 18.25 16.1301 21.09C14.9701 22.2 13.4801 22.76 12.0001 22.76Z" fill="black"/>
<path d="M1.99994 22.7499C1.80994 22.7499 1.61994 22.6799 1.46994 22.5299C1.17994 22.2399 1.17994 21.7599 1.46994 21.4699L21.4699 1.46994C21.7599 1.17994 22.2399 1.17994 22.5299 1.46994C22.8199 1.75994 22.8199 2.23994 22.5299 2.52994L2.52994 22.5299C2.37994 22.6799 2.18994 22.7499 1.99994 22.7499Z" fill="black"/>
</svg>
