<svg width="24" height="24" viewBox="0 0 24 24" fill="none" xmlns="http://www.w3.org/2000/svg">
<path d="M21.7 6.38989H14.43C14.02 6.38989 13.68 6.04989 13.68 5.63989C13.68 5.22989 14.02 4.88989 14.43 4.88989H21.7C22.11 4.88989 22.45 5.22989 22.45 5.63989C22.45 6.04989 22.11 6.38989 21.7 6.38989Z" fill="black"/>
<path d="M9.58 6.38989H2.3C1.89 6.38989 1.55 6.04989 1.55 5.63989C1.55 5.22989 1.89 4.88989 2.3 4.88989H9.57C9.98 4.88989 10.32 5.22989 10.32 5.63989C10.32 6.04989 9.99 6.38989 9.58 6.38989Z" fill="black"/>
<path d="M21.7 16.0801H14.43C14.02 16.0801 13.68 15.7401 13.68 15.3301C13.68 14.9201 14.02 14.5801 14.43 14.5801H21.7C22.11 14.5801 22.45 14.9201 22.45 15.3301C22.45 15.7401 22.11 16.0801 21.7 16.0801Z" fill="black"/>
<path d="M21.7 22.1399H14.43C14.02 22.1399 13.68 21.7999 13.68 21.3899C13.68 20.9799 14.02 20.6399 14.43 20.6399H21.7C22.11 20.6399 22.45 20.9799 22.45 21.3899C22.45 21.7999 22.11 22.1399 21.7 22.1399Z" fill="black"/>
<path d="M18.09 10.02C17.68 10.02 17.34 9.68 17.34 9.27V2C17.34 1.59 17.68 1.25 18.09 1.25C18.5 1.25 18.84 1.59 18.84 2V9.27C18.84 9.69 18.51 10.02 18.09 10.02Z" fill="black"/>
<path d="M2.3 22.7499C2.11 22.7499 1.92 22.6799 1.77 22.5299C1.48 22.2399 1.48 21.7599 1.77 21.4699L9.04 14.1999C9.33 13.9099 9.81 13.9099 10.1 14.1999C10.39 14.4899 10.39 14.9699 10.1 15.2599L2.83 22.5299C2.69 22.6799 2.5 22.7499 2.3 22.7499Z" fill="black"/>
<path d="M9.58 22.7499C9.39 22.7499 9.2 22.6799 9.05 22.5299L1.78 15.2599C1.49 14.9699 1.49 14.4899 1.78 14.1999C2.07 13.9099 2.55 13.9099 2.84 14.1999L10.11 21.4699C10.4 21.7599 10.4 22.2399 10.11 22.5299C9.96 22.6799 9.77 22.7499 9.58 22.7499Z" fill="black"/>
</svg>
