<svg width="24" height="24" viewBox="0 0 24 24" fill="none" xmlns="http://www.w3.org/2000/svg">
<path d="M8 11.75C7.59 11.75 7.25 11.41 7.25 11V6C7.25 3.38 9.38 1.25 12 1.25C14.62 1.25 16.75 3.38 16.75 6V6.3C16.75 6.71 16.41 7.05 16 7.05C15.59 7.05 15.25 6.71 15.25 6.3V6C15.25 4.21 13.79 2.75 12 2.75C10.21 2.75 8.75 4.21 8.75 6V11C8.75 11.41 8.41 11.75 8 11.75Z" fill="black"/>
<path d="M12 16.25C10.66 16.25 9.38003 15.68 8.48003 14.69C8.20003 14.38 8.23003 13.91 8.53003 13.63C8.84003 13.35 9.31003 13.38 9.59003 13.68C10.2 14.36 11.08 14.75 12 14.75C13.79 14.75 15.25 13.29 15.25 11.5V11C15.25 10.59 15.59 10.25 16 10.25C16.41 10.25 16.75 10.59 16.75 11V11.5C16.75 14.12 14.62 16.25 12 16.25Z" fill="black"/>
<path d="M11.9999 19.7499C9.86994 19.7499 7.82994 18.9499 6.26994 17.4999C5.96994 17.2199 5.94994 16.7399 6.22994 16.4399C6.51994 16.1299 6.99994 16.1199 7.29994 16.3999C8.57994 17.5899 10.2499 18.2499 11.9999 18.2499C15.7999 18.2499 18.8999 15.1499 18.8999 11.3499V9.6499C18.8999 9.2399 19.2399 8.8999 19.6499 8.8999C20.0599 8.8999 20.3999 9.2399 20.3999 9.6499V11.3499C20.3999 15.9799 16.6299 19.7499 11.9999 19.7499Z" fill="black"/>
<path d="M4.94998 15.0799C4.65998 15.0799 4.37998 14.9099 4.25998 14.6199C3.81998 13.5799 3.59998 12.4899 3.59998 11.3499V9.6499C3.59998 9.2399 3.93998 8.8999 4.34998 8.8999C4.75998 8.8999 5.09998 9.2399 5.09998 9.6499V11.3499C5.09998 12.2799 5.27998 13.1799 5.63998 14.0299C5.79998 14.4099 5.61998 14.8499 5.23998 15.0099C5.14998 15.0599 5.04998 15.0799 4.94998 15.0799Z" fill="black"/>
<path d="M3.91999 19.7398C3.72999 19.7398 3.53999 19.6698 3.38999 19.5198C3.09999 19.2298 3.09999 18.7498 3.38999 18.4598L19.54 2.30979C19.83 2.01979 20.31 2.01979 20.6 2.30979C20.89 2.59979 20.89 3.07979 20.6 3.36979L4.45999 19.5198C4.30999 19.6698 4.11999 19.7398 3.91999 19.7398Z" fill="black"/>
<path d="M11 6.75C10.59 6.75 10.25 6.41 10.25 6V3C10.25 2.59 10.59 2.25 11 2.25C11.41 2.25 11.75 2.59 11.75 3V6C11.75 6.41 11.41 6.75 11 6.75Z" fill="black"/>
<path d="M12 22.75C11.59 22.75 11.25 22.41 11.25 22V19C11.25 18.59 11.59 18.25 12 18.25C12.41 18.25 12.75 18.59 12.75 19V22C12.75 22.41 12.41 22.75 12 22.75Z" fill="black"/>
</svg>
