<svg width="24" height="24" viewBox="0 0 24 24" fill="none" xmlns="http://www.w3.org/2000/svg">
<path d="M11.9998 22.7499C7.29981 22.7499 3.17981 19.7399 1.75981 15.2699C1.68981 15.0399 1.72981 14.7999 1.86981 14.5999C2.00981 14.4099 2.22981 14.2899 2.46981 14.2899L6.25981 14.2599V8.9999C6.25981 8.6799 6.45981 8.3999 6.74981 8.2899C7.04981 8.1799 7.37981 8.26989 7.57981 8.51989L11.9998 13.8299L16.4198 8.51989C16.6198 8.27989 16.9598 8.1899 17.2498 8.2899C17.5498 8.3999 17.7398 8.6799 17.7398 8.9999V14.2499H21.5298C21.7698 14.2499 21.9898 14.3599 22.1298 14.5599C22.2698 14.7499 22.3098 14.9999 22.2398 15.2299C20.8398 19.7299 16.7098 22.7499 11.9998 22.7499ZM3.54981 15.7799C5.02981 19.0899 8.29981 21.2499 11.9998 21.2499C15.7098 21.2499 18.9898 19.0799 20.4598 15.7499H16.9998C16.5898 15.7499 16.2498 15.4099 16.2498 14.9999V11.0699L12.5798 15.4799C12.2898 15.8199 11.7098 15.8199 11.4298 15.4799L7.75981 11.0699V14.9999C7.75981 15.4099 7.42981 15.7499 7.01981 15.7499L3.54981 15.7799Z" fill="black"/>
<path d="M2.47 15.79C2.14 15.79 1.85 15.58 1.75 15.26C1.42 14.19 1.25 13.09 1.25 12C1.25 6.07 6.07 1.25 12 1.25C17.93 1.25 22.75 6.07 22.75 12C22.75 13.1 22.58 14.19 22.26 15.23C22.16 15.54 21.87 15.75 21.54 15.75H17C16.59 15.75 16.25 15.41 16.25 15V11.07L12.58 15.48C12.29 15.82 11.71 15.82 11.43 15.48L7.76 11.07V15C7.76 15.41 7.43 15.75 7.02 15.75L2.47 15.79ZM12 2.75C6.9 2.75 2.75 6.9 2.75 12C2.75 12.76 2.85 13.53 3.04 14.29L6.25 14.26V9C6.25 8.68 6.45 8.4 6.74 8.29C7.04 8.18 7.37 8.27 7.57 8.52L12 13.83L16.42 8.52C16.62 8.28 16.96 8.19 17.25 8.29C17.55 8.4 17.74 8.68 17.74 9V14.25H20.96C21.14 13.52 21.24 12.76 21.24 12C21.25 6.9 17.1 2.75 12 2.75Z" fill="black"/>
</svg>
