<svg width="24" height="24" viewBox="0 0 24 24" fill="none" xmlns="http://www.w3.org/2000/svg">
<path d="M11.9998 10.07C10.3998 10.07 9.08984 8.76 9.08984 7.16C9.08984 5.56 10.3998 4.25 11.9998 4.25C13.5998 4.25 14.9098 5.56 14.9098 7.16C14.9098 8.76 13.5998 10.07 11.9998 10.07ZM11.9998 5.75C11.2198 5.75 10.5898 6.38 10.5898 7.16C10.5898 7.94 11.2198 8.57 11.9998 8.57C12.7798 8.57 13.4098 7.94 13.4098 7.16C13.4098 6.38 12.7798 5.75 11.9998 5.75Z" fill="black"/>
<path d="M6.78988 19.7499C5.18988 19.7499 3.87988 18.4399 3.87988 16.8399C3.87988 15.2399 5.18988 13.9299 6.78988 13.9299C8.38988 13.9299 9.69988 15.2399 9.69988 16.8399C9.69988 18.4399 8.38988 19.7499 6.78988 19.7499ZM6.78988 15.4299C6.00988 15.4299 5.37988 16.0599 5.37988 16.8399C5.37988 17.6199 6.00988 18.2499 6.78988 18.2499C7.56988 18.2499 8.19988 17.6199 8.19988 16.8399C8.19988 16.0599 7.55988 15.4299 6.78988 15.4299Z" fill="black"/>
<path d="M17.2098 19.7499C15.6098 19.7499 14.2998 18.4399 14.2998 16.8399C14.2998 15.2399 15.6098 13.9299 17.2098 13.9299C18.8098 13.9299 20.1198 15.2399 20.1198 16.8399C20.1198 18.4399 18.8198 19.7499 17.2098 19.7499ZM17.2098 15.4299C16.4298 15.4299 15.7998 16.0599 15.7998 16.8399C15.7998 17.6199 16.4298 18.2499 17.2098 18.2499C17.9898 18.2499 18.6198 17.6199 18.6198 16.8399C18.6198 16.0599 17.9898 15.4299 17.2098 15.4299Z" fill="black"/>
</svg>
