<svg width="24" height="24" viewBox="0 0 24 24" fill="none" xmlns="http://www.w3.org/2000/svg">
<path d="M6.28003 22.75C4.15003 22.75 2.41003 21.01 2.41003 18.88C2.41003 16.75 4.15003 15.01 6.28003 15.01C8.41003 15.01 10.15 16.75 10.15 18.88C10.15 21.01 8.41003 22.75 6.28003 22.75ZM6.28003 16.51C4.97003 16.51 3.91003 17.57 3.91003 18.88C3.91003 20.19 4.97003 21.25 6.28003 21.25C7.59003 21.25 8.65003 20.19 8.65003 18.88C8.65003 17.57 7.59003 16.51 6.28003 16.51Z" fill="black"/>
<path d="M9.40002 19.6301C8.99002 19.6301 8.65002 19.2901 8.65002 18.8801V6.30013C8.65002 4.72013 9.60002 3.48013 11.12 3.07013L17.36 1.37013C18.63 1.02013 19.7 1.15013 20.45 1.73013C21.21 2.31013 21.59 3.28013 21.59 4.61013V16.8101C21.59 17.2201 21.25 17.5601 20.84 17.5601C20.43 17.5601 20.09 17.2201 20.09 16.8101V4.60013C20.09 4.02013 19.99 3.26013 19.54 2.92013C19.05 2.54013 18.21 2.69013 17.75 2.82013L11.51 4.52013C10.64 4.76013 10.15 5.41013 10.15 6.31013V18.8901C10.15 19.2901 9.81002 19.6301 9.40002 19.6301Z" fill="black"/>
<path d="M17.72 20.6699C15.59 20.6699 13.85 18.9299 13.85 16.7999C13.85 14.6699 15.59 12.9299 17.72 12.9299C19.85 12.9299 21.59 14.6699 21.59 16.7999C21.59 18.9299 19.85 20.6699 17.72 20.6699ZM17.72 14.4299C16.41 14.4299 15.35 15.4899 15.35 16.7999C15.35 18.1099 16.41 19.1699 17.72 19.1699C19.03 19.1699 20.09 18.1099 20.09 16.7999C20.09 15.4899 19.03 14.4299 17.72 14.4299Z" fill="black"/>
<path d="M9.40005 10.2698C9.07005 10.2698 8.77005 10.0498 8.68005 9.71978C8.57005 9.31978 8.80005 8.89978 9.20005 8.78978L20.64 5.66978C21.04 5.55978 21.45 5.79978 21.56 6.19978C21.67 6.59978 21.43 7.00978 21.03 7.11978L9.60005 10.2398C9.53005 10.2598 9.46005 10.2698 9.40005 10.2698Z" fill="black"/>
</svg>
