<svg width="24" height="24" viewBox="0 0 24 24" fill="none" xmlns="http://www.w3.org/2000/svg">
<path d="M9.50001 14.0001C9.33001 14.0001 9.15002 13.9401 9.01002 13.8201C8.78002 13.6201 8.69001 13.3101 8.78001 13.0301L11.28 5.03006C11.37 4.73006 11.64 4.52006 11.95 4.51006C12.27 4.49006 12.55 4.67006 12.68 4.95006L15.18 10.4501C15.35 10.8201 15.19 11.2501 14.83 11.4301L9.82999 13.9301C9.72999 13.9701 9.61001 14.0001 9.50001 14.0001ZM12.13 7.35007L10.74 11.7901L13.52 10.4001L12.13 7.35007Z" fill="black"/>
<path d="M13.5002 15.4999C13.4202 15.4999 13.3402 15.4899 13.2602 15.4599L5.76022 12.9599C5.47022 12.8599 5.27021 12.5999 5.25021 12.2999C5.23021 11.9999 5.39022 11.7099 5.66022 11.5799L9.66022 9.57994C10.0302 9.39994 10.4802 9.54994 10.6702 9.91994C10.8602 10.2899 10.7102 10.7399 10.3302 10.9299L7.95023 12.1199L13.4202 13.9399L16.1402 12.4299L13.8502 11.6699C13.4602 11.5399 13.2402 11.1199 13.3702 10.7199C13.5002 10.3299 13.9202 10.1099 14.3202 10.2399L18.2402 11.5299C18.5202 11.6199 18.7202 11.8799 18.7502 12.1699C18.7802 12.4699 18.6302 12.7499 18.3702 12.8999L13.8702 15.3999C13.7502 15.4699 13.6302 15.4999 13.5002 15.4999Z" fill="black"/>
<path d="M11.9998 19.0001C11.7198 19.0001 11.4698 18.8501 11.3398 18.6001L8.83979 13.9201C8.63979 13.5501 8.77979 13.1001 9.14979 12.9001C9.51979 12.7001 9.96981 12.8401 10.1698 13.2101L11.8498 16.3501L12.2998 15.0001C12.4298 14.6101 12.8598 14.4001 13.2498 14.5301C13.6398 14.6601 13.8498 15.0901 13.7198 15.4801L12.7198 18.4801C12.6298 18.7601 12.3698 18.9601 12.0698 18.9901C12.0398 19.0001 12.0198 19.0001 11.9998 19.0001Z" fill="black"/>
<path d="M12 22.75C6.07 22.75 1.25 17.93 1.25 12C1.25 6.07 6.07 1.25 12 1.25C17.93 1.25 22.75 6.07 22.75 12C22.75 17.93 17.93 22.75 12 22.75ZM12 2.75C6.9 2.75 2.75 6.9 2.75 12C2.75 17.1 6.9 21.25 12 21.25C17.1 21.25 21.25 17.1 21.25 12C21.25 6.9 17.1 2.75 12 2.75Z" fill="black"/>
</svg>
