<svg width="24" height="24" viewBox="0 0 24 24" fill="none" xmlns="http://www.w3.org/2000/svg">
<path d="M12.33 21.3401C11.24 21.3401 10.15 20.9301 9.31998 20.1001C7.65998 18.4401 7.65998 15.7501 9.31998 14.0901L11.8 11.6201C12.09 11.3301 12.57 11.3301 12.86 11.6201C13.15 11.9101 13.15 12.3901 12.86 12.6801L10.38 15.1501C9.30998 16.2201 9.30998 17.9701 10.38 19.0401C11.45 20.1101 13.2 20.1101 14.27 19.0401L18.16 15.1501C19.34 13.9701 19.99 12.4001 19.99 10.7301C19.99 9.06011 19.34 7.49011 18.16 6.31011C15.72 3.87011 11.76 3.87011 9.31998 6.31011L5.07998 10.5501C4.08998 11.5401 3.53998 12.8601 3.53998 14.2601C3.53998 15.6601 4.08998 16.9801 5.07998 17.9701C5.36998 18.2601 5.36998 18.7401 5.07998 19.0301C4.78998 19.3201 4.30998 19.3201 4.01998 19.0301C2.74998 17.7501 2.03998 16.0601 2.03998 14.2601C2.03998 12.4601 2.73998 10.7601 4.01998 9.49011L8.25998 5.25011C11.28 2.23011 16.2 2.23011 19.22 5.25011C20.68 6.71011 21.49 8.66011 21.49 10.7301C21.49 12.8001 20.68 14.7501 19.22 16.2101L15.33 20.1001C14.5 20.9301 13.42 21.3401 12.33 21.3401Z" fill="black"/>
</svg>
