<svg width="24" height="24" viewBox="0 0 24 24" fill="none" xmlns="http://www.w3.org/2000/svg">
<path d="M14.0402 22.75H9.2502C7.6302 22.75 6.1602 22.12 5.1002 20.96C4.0402 19.81 3.5302 18.29 3.6702 16.68C4.0102 12.58 7.6302 9.25 11.7502 9.25C15.5402 9.25 19.1202 12.29 19.7502 16.02C20.0502 17.8 19.6102 19.48 18.5302 20.76C17.4302 22.04 15.8402 22.75 14.0402 22.75ZM11.7402 10.75C8.3902 10.75 5.4402 13.47 5.1602 16.81C5.0602 18 5.4302 19.11 6.2002 19.95C6.9702 20.79 8.0502 21.25 9.2402 21.25H14.0302C15.3802 21.25 16.5702 20.73 17.3602 19.8C18.1502 18.87 18.4702 17.61 18.2502 16.27C17.7502 13.23 14.8302 10.75 11.7402 10.75Z" fill="black"/>
<path d="M10.4702 8.25C8.68022 8.25 7.22021 6.79 7.22021 5C7.22021 3.21 8.68022 1.75 10.4702 1.75C12.2602 1.75 13.7202 3.21 13.7202 5C13.7202 6.79 12.2702 8.25 10.4702 8.25ZM10.4702 3.25C9.51022 3.25 8.72022 4.04 8.72022 5C8.72022 5.96 9.51022 6.75 10.4702 6.75C11.4302 6.75 12.2202 5.96 12.2202 5C12.2202 4.04 11.4402 3.25 10.4702 3.25Z" fill="black"/>
<path d="M17.2998 9.44995C15.7798 9.44995 14.5498 8.21995 14.5498 6.69995C14.5498 5.17995 15.7798 3.94995 17.2998 3.94995C18.8198 3.94995 20.0498 5.17995 20.0498 6.69995C20.0498 8.21995 18.8198 9.44995 17.2998 9.44995ZM17.2998 5.44995C16.6098 5.44995 16.0498 6.00995 16.0498 6.69995C16.0498 7.38995 16.6098 7.94995 17.2998 7.94995C17.9898 7.94995 18.5498 7.38995 18.5498 6.69995C18.5498 6.00995 17.9898 5.44995 17.2998 5.44995Z" fill="black"/>
<path d="M21 13.45C19.76 13.45 18.75 12.44 18.75 11.2C18.75 9.95995 19.76 8.94995 21 8.94995C22.24 8.94995 23.25 9.95995 23.25 11.2C23.25 12.44 22.24 13.45 21 13.45ZM21 10.45C20.59 10.45 20.25 10.79 20.25 11.2C20.25 11.61 20.59 11.95 21 11.95C21.41 11.95 21.75 11.61 21.75 11.2C21.75 10.79 21.41 10.45 21 10.45Z" fill="black"/>
<path d="M3.97021 11.45C2.45021 11.45 1.22021 10.22 1.22021 8.69995C1.22021 7.17995 2.45021 5.94995 3.97021 5.94995C5.49021 5.94995 6.72021 7.17995 6.72021 8.69995C6.72021 10.22 5.49021 11.45 3.97021 11.45ZM3.97021 7.44995C3.28021 7.44995 2.72021 8.00995 2.72021 8.69995C2.72021 9.38995 3.28021 9.94995 3.97021 9.94995C4.66021 9.94995 5.22021 9.38995 5.22021 8.69995C5.22021 8.00995 4.66021 7.44995 3.97021 7.44995Z" fill="black"/>
</svg>
