<svg width="24" height="24" viewBox="0 0 24 24" fill="none" xmlns="http://www.w3.org/2000/svg">
<path d="M21 22.75H3C2.59 22.75 2.25 22.41 2.25 22C2.25 21.59 2.59 21.25 3 21.25H21C21.41 21.25 21.75 21.59 21.75 22C21.75 22.41 21.41 22.75 21 22.75Z" fill="black"/>
<path d="M21 2.75H3C2.59 2.75 2.25 2.41 2.25 2C2.25 1.59 2.59 1.25 3 1.25H21C21.41 1.25 21.75 1.59 21.75 2C21.75 2.41 21.41 2.75 21 2.75Z" fill="black"/>
<path d="M12 18.75C11.59 18.75 11.25 18.41 11.25 18V6C11.25 5.59 11.59 5.25 12 5.25C12.41 5.25 12.75 5.59 12.75 6V18C12.75 18.41 12.41 18.75 12 18.75Z" fill="black"/>
<path d="M14.83 8.4699C14.64 8.4699 14.45 8.3999 14.3 8.2499L12 5.9499L9.69998 8.2499C9.40998 8.5399 8.92999 8.5399 8.63999 8.2499C8.34999 7.9599 8.34999 7.4799 8.63999 7.1899L11.47 4.3599C11.75 4.0799 12.25 4.0799 12.53 4.3599L15.36 7.1899C15.65 7.4799 15.65 7.9599 15.36 8.2499C15.21 8.3999 15.02 8.4699 14.83 8.4699Z" fill="black"/>
<path d="M12 19.4701C11.8 19.4701 11.61 19.3901 11.47 19.2501L8.63999 16.4201C8.34999 16.1301 8.34999 15.6501 8.63999 15.3601C8.92999 15.0701 9.40998 15.0701 9.69998 15.3601L12 17.6601L14.3 15.3601C14.59 15.0701 15.07 15.0701 15.36 15.3601C15.65 15.6501 15.65 16.1301 15.36 16.4201L12.53 19.2501C12.39 19.3901 12.2 19.4701 12 19.4701Z" fill="black"/>
</svg>
