<svg width="24" height="24" viewBox="0 0 24 24" fill="none" xmlns="http://www.w3.org/2000/svg">
<path d="M12 22.7499C6.79996 22.7499 2.57996 18.5199 2.57996 13.3299C2.57996 11.4599 3.12996 9.64989 4.16996 8.08989C4.39996 7.74989 4.86996 7.64989 5.20996 7.87989C5.54996 8.10989 5.64996 8.57989 5.41996 8.91989C4.54996 10.2199 4.08996 11.7499 4.08996 13.3199C4.08996 17.6899 7.63996 21.2399 12.01 21.2399C16.38 21.2399 19.93 17.6899 19.93 13.3199C19.93 8.94989 16.37 5.39989 12 5.39989C11.08 5.39989 10.18 5.52989 9.32996 5.78989C8.92996 5.90989 8.50996 5.68989 8.38996 5.28989C8.26996 4.88989 8.48996 4.46989 8.88996 4.34989C9.88996 4.04989 10.93 3.88989 12 3.88989C17.2 3.88989 21.42 8.11989 21.42 13.3099C21.42 18.4999 17.2 22.7499 12 22.7499Z" fill="black"/>
<path d="M7.86999 6.07012C7.69999 6.07012 7.51999 6.01012 7.37999 5.89012C7.05999 5.61012 7.02999 5.14012 7.29999 4.83012L10.19 1.51012C10.46 1.20012 10.94 1.16012 11.25 1.44012C11.56 1.71012 11.59 2.19012 11.32 2.50012L8.42999 5.81012C8.27999 5.98012 8.06999 6.07012 7.86999 6.07012Z" fill="black"/>
<path d="M11.24 8.52988C11.09 8.52988 10.93 8.47988 10.8 8.38988L7.41995 5.91988C7.08995 5.67988 7.01995 5.20988 7.25995 4.87988C7.49995 4.53988 7.96995 4.46988 8.30995 4.70988L11.68 7.16988C12.01 7.40988 12.09 7.87988 11.84 8.21988C11.7 8.42988 11.47 8.52988 11.24 8.52988Z" fill="black"/>
</svg>
