<svg width="24" height="24" viewBox="0 0 24 24" fill="none" xmlns="http://www.w3.org/2000/svg">
<path d="M14.6902 22.7501C14.2502 22.7501 13.7902 22.6201 13.3202 22.3701L9.39023 20.1801C9.20023 20.0801 8.79023 20.0801 8.60023 20.1801L4.67023 22.3701C3.82023 22.8401 2.96023 22.8801 2.29023 22.4901C1.63023 22.1001 1.24023 21.3201 1.24023 20.3601V9.00012C1.24023 6.87012 2.97023 5.14014 5.10023 5.14014H12.8802C15.0102 5.14014 16.7402 6.87012 16.7402 9.00012V20.3601C16.7402 21.3201 16.3602 22.1001 15.6902 22.4901C15.4002 22.6601 15.0602 22.7501 14.6902 22.7501ZM9.00023 18.6001C9.40023 18.6001 9.79023 18.6901 10.1202 18.8701L14.0602 21.0601C14.4202 21.2601 14.7502 21.3101 14.9502 21.1901C15.1402 21.0801 15.2602 20.7601 15.2602 20.3501V8.99011C15.2602 7.69011 14.2002 6.63013 12.9002 6.63013H5.11023C3.81023 6.63013 2.75023 7.69011 2.75023 8.99011V20.3501C2.75023 20.7601 2.87023 21.0801 3.06023 21.1901C3.25023 21.3001 3.59023 21.2501 3.95023 21.0501L7.88023 18.8601C8.20023 18.6901 8.60023 18.6001 9.00023 18.6001Z" fill="black"/>
<path d="M7.58979 14.16C7.39979 14.16 7.20979 14.09 7.05979 13.94C6.76979 13.65 6.76979 13.17 7.05979 12.88L9.88979 10.05C10.1798 9.76002 10.6598 9.76002 10.9498 10.05C11.2398 10.34 11.2398 10.82 10.9498 11.11L8.11979 13.94C7.96979 14.09 7.77979 14.16 7.58979 14.16Z" fill="black"/>
<path d="M10.41 14.16C10.22 14.16 10.03 14.09 9.88002 13.94L7.05002 11.11C6.76002 10.82 6.76002 10.34 7.05002 10.05C7.34002 9.76002 7.82002 9.76002 8.11002 10.05L10.94 12.88C11.23 13.17 11.23 13.65 10.94 13.94C10.8 14.09 10.61 14.16 10.41 14.16Z" fill="black"/>
<path d="M20.69 18.87C20.25 18.87 19.79 18.74 19.32 18.49L15.63 16.43C15.39 16.3 15.25 16.05 15.25 15.78V9C15.25 7.7 14.19 6.64001 12.89 6.64001H8C7.59 6.64001 7.25 6.30001 7.25 5.89001V5.12C7.25 2.99 8.98 1.26001 11.11 1.26001H18.89C21.02 1.26001 22.75 2.99 22.75 5.12V16.48C22.75 17.44 22.37 18.22 21.7 18.61C21.4 18.78 21.06 18.87 20.69 18.87ZM16.75 15.33L20.06 17.18C20.42 17.38 20.75 17.43 20.95 17.31C21.14 17.2 21.26 16.88 21.26 16.47V5.10999C21.26 3.80999 20.2 2.75 18.9 2.75H11.12C9.82 2.75 8.76 3.80999 8.76 5.10999V5.13H12.9C15.03 5.13 16.76 6.85999 16.76 8.98999V15.33H16.75Z" fill="black"/>
</svg>
