<svg width="24" height="24" viewBox="0 0 24 24" fill="none" xmlns="http://www.w3.org/2000/svg">
<path d="M11.9999 22.76C10.9099 22.76 9.82992 22.4399 8.97992 21.8099L4.6799 18.5999C3.5399 17.7499 2.6499 15.9799 2.6499 14.5599V7.12995C2.6499 5.58995 3.77992 3.94995 5.22992 3.40995L10.2199 1.53995C11.2099 1.16995 12.7699 1.16995 13.7599 1.53995L18.7599 3.40995C20.2099 3.94995 21.3399 5.58995 21.3399 7.12995V14.5599C21.3399 15.9799 20.4499 17.7499 19.3099 18.5999L15.0099 21.8099C14.1699 22.4399 13.0899 22.76 11.9999 22.76ZM10.7499 2.93995L5.75992 4.80994C4.89992 5.12994 4.1499 6.20995 4.1499 7.12995V14.5599C4.1499 15.5099 4.81992 16.8399 5.56992 17.3999L9.8699 20.6099C11.0199 21.4699 12.9699 21.4699 14.1199 20.6099L18.4199 17.3999C19.1799 16.8299 19.8399 15.4999 19.8399 14.5599V7.12995C19.8399 6.21995 19.0899 5.13994 18.2299 4.80994L13.2399 2.93995C12.5799 2.68995 11.4199 2.68995 10.7499 2.93995Z" fill="black"/>
<path d="M11.9999 11.6702C11.9799 11.6702 11.9599 11.6702 11.9299 11.6702C10.4799 11.6302 9.41992 10.5202 9.41992 9.17017C9.41992 7.79017 10.5499 6.66016 11.9299 6.66016C13.3099 6.66016 14.4399 7.79017 14.4399 9.17017C14.4299 10.5302 13.3699 11.6301 12.0199 11.6801C12.0099 11.6701 12.0099 11.6702 11.9999 11.6702ZM11.9299 8.16016C11.3699 8.16016 10.9199 8.61017 10.9199 9.17017C10.9199 9.72017 11.3499 10.1601 11.8899 10.1801C11.8899 10.1801 11.9399 10.1801 11.9999 10.1801C12.5299 10.1501 12.9399 9.71017 12.9399 9.17017C12.9499 8.61017 12.4899 8.16016 11.9299 8.16016Z" fill="black"/>
<path d="M11.9998 17.35C11.1398 17.35 10.2698 17.12 9.59982 16.67C8.92982 16.23 8.5498 15.58 8.5498 14.89C8.5498 14.2 8.92982 13.55 9.59982 13.1C10.9498 12.2 13.0598 12.21 14.3998 13.1C15.0698 13.54 15.4498 14.19 15.4498 14.88C15.4498 15.57 15.0698 16.22 14.3998 16.67C13.7298 17.12 12.8598 17.35 11.9998 17.35ZM10.4298 14.34C10.1798 14.5 10.0398 14.7 10.0498 14.88C10.0498 15.06 10.1898 15.26 10.4298 15.42C11.2698 15.98 12.7298 15.98 13.5698 15.42C13.8198 15.26 13.9598 15.06 13.9598 14.88C13.9598 14.7 13.8198 14.5 13.5798 14.34C12.7398 13.79 11.2698 13.79 10.4298 14.34Z" fill="black"/>
</svg>
