<svg width="24" height="24" viewBox="0 0 24 24" fill="none" xmlns="http://www.w3.org/2000/svg">
<path d="M15 22.75H9C3.57 22.75 1.25 20.43 1.25 15V9C1.25 3.57 3.57 1.25 9 1.25H15C20.43 1.25 22.75 3.57 22.75 9V15C22.75 20.43 20.43 22.75 15 22.75ZM9 2.75C4.39 2.75 2.75 4.39 2.75 9V15C2.75 19.61 4.39 21.25 9 21.25H15C19.61 21.25 21.25 19.61 21.25 15V9C21.25 4.39 19.61 2.75 15 2.75H9Z" fill="black"/>
<path d="M15.5801 19.2501C15.1701 19.2501 14.8301 18.9101 14.8301 18.5001V14.6001C14.8301 14.1901 15.1701 13.8501 15.5801 13.8501C15.9901 13.8501 16.3301 14.1901 16.3301 14.6001V18.5001C16.3301 18.9101 15.9901 19.2501 15.5801 19.2501Z" fill="black"/>
<path d="M15.5801 8.2C15.1701 8.2 14.8301 7.86 14.8301 7.45V5.5C14.8301 5.09 15.1701 4.75 15.5801 4.75C15.9901 4.75 16.3301 5.09 16.3301 5.5V7.45C16.3301 7.86 15.9901 8.2 15.5801 8.2Z" fill="black"/>
<path d="M15.58 13.4C13.73 13.4 12.23 11.9 12.23 10.05C12.23 8.19995 13.73 6.69995 15.58 6.69995C17.43 6.69995 18.93 8.19995 18.93 10.05C18.93 11.9 17.42 13.4 15.58 13.4ZM15.58 8.19995C14.56 8.19995 13.73 9.02995 13.73 10.05C13.73 11.07 14.56 11.9 15.58 11.9C16.6 11.9 17.43 11.07 17.43 10.05C17.43 9.02995 16.59 8.19995 15.58 8.19995Z" fill="black"/>
<path d="M8.41992 19.25C8.00992 19.25 7.66992 18.91 7.66992 18.5V16.55C7.66992 16.14 8.00992 15.8 8.41992 15.8C8.82992 15.8 9.16992 16.14 9.16992 16.55V18.5C9.16992 18.91 8.83992 19.25 8.41992 19.25Z" fill="black"/>
<path d="M8.41992 10.15C8.00992 10.15 7.66992 9.81 7.66992 9.4V5.5C7.66992 5.09 8.00992 4.75 8.41992 4.75C8.82992 4.75 9.16992 5.09 9.16992 5.5V9.4C9.16992 9.81 8.83992 10.15 8.41992 10.15Z" fill="black"/>
<path d="M8.41982 17.3001C6.56982 17.3001 5.06982 15.8001 5.06982 13.9501C5.06982 12.1001 6.56982 10.6001 8.41982 10.6001C10.2698 10.6001 11.7698 12.1001 11.7698 13.9501C11.7698 15.8001 10.2698 17.3001 8.41982 17.3001ZM8.41982 12.1001C7.39982 12.1001 6.56982 12.9301 6.56982 13.9501C6.56982 14.9701 7.39982 15.8001 8.41982 15.8001C9.43982 15.8001 10.2698 14.9701 10.2698 13.9501C10.2698 12.9301 9.44982 12.1001 8.41982 12.1001Z" fill="black"/>
</svg>
