<svg width="24" height="24" viewBox="0 0 24 24" fill="none" xmlns="http://www.w3.org/2000/svg">
<path d="M11.9999 22.7499C10.8699 22.7499 9.7899 22.4199 8.9799 21.8099L4.6799 18.5999C3.5399 17.7499 2.6499 15.9799 2.6499 14.5599V7.11994C2.6499 5.57994 3.7799 3.93994 5.2299 3.39994L10.2199 1.52994C11.2099 1.15994 12.7699 1.15994 13.7599 1.52994L18.7599 3.39994C20.2099 3.93994 21.3399 5.57994 21.3399 7.11994V10.5499C21.3399 10.9599 20.9999 11.2999 20.5899 11.2999C20.1799 11.2999 19.8399 10.9599 19.8399 10.5499V7.11994C19.8399 6.20994 19.0899 5.12994 18.2299 4.79994L13.2399 2.92994C12.5799 2.67994 11.4099 2.67994 10.7499 2.92994L5.7599 4.80994C4.8999 5.12994 4.1499 6.20994 4.1499 7.12994V14.5599C4.1499 15.5099 4.8199 16.8399 5.5699 17.3999L9.8699 20.6099C10.4199 21.0199 11.1899 21.2499 11.9899 21.2499C12.3999 21.2499 12.7399 21.5899 12.7399 21.9999C12.7399 22.4099 12.4099 22.7499 11.9999 22.7499Z" fill="black"/>
<path d="M16 20.75C13.38 20.75 11.25 18.62 11.25 16C11.25 13.38 13.38 11.25 16 11.25C18.62 11.25 20.75 13.38 20.75 16C20.75 18.62 18.62 20.75 16 20.75ZM16 12.76C14.21 12.76 12.75 14.22 12.75 16.01C12.75 17.8 14.21 19.26 16 19.26C17.79 19.26 19.25 17.8 19.25 16.01C19.25 14.22 17.79 12.76 16 12.76Z" fill="black"/>
<path d="M21 22C20.93 22 20.87 21.9899 20.8 21.9799C20.74 21.9699 20.68 21.95 20.62 21.92C20.56 21.9 20.5 21.87 20.44 21.83C20.39 21.79 20.34 21.7499 20.29 21.7099C20.11 21.5199 20 21.26 20 21C20 20.87 20.03 20.74 20.08 20.62C20.13 20.5 20.2 20.39 20.29 20.29C20.66 19.92 21.34 19.92 21.71 20.29C21.8 20.39 21.87 20.5 21.92 20.62C21.97 20.74 22 20.87 22 21C22 21.26 21.89 21.5199 21.71 21.7099C21.52 21.8899 21.26 22 21 22Z" fill="black"/>
</svg>
