<svg width="24" height="24" viewBox="0 0 24 24" fill="none" xmlns="http://www.w3.org/2000/svg">
<path d="M14.5397 11.37C13.0997 11.37 11.9297 10.2 11.9297 8.76001V4.12C11.9297 2.68 13.0997 1.51001 14.5397 1.51001C15.9797 1.51001 17.1497 2.68 17.1497 4.12V8.76001C17.1497 10.2 15.9797 11.37 14.5397 11.37ZM14.5397 3.01001C13.9297 3.01001 13.4297 3.51 13.4297 4.12V8.76001C13.4297 9.37001 13.9297 9.87 14.5397 9.87C15.1497 9.87 15.6497 9.37001 15.6497 8.76001V4.12C15.6497 3.51 15.1497 3.01001 14.5397 3.01001Z" fill="black"/>
<path d="M20.1803 11.37H18.6104C18.2004 11.37 17.8604 11.03 17.8604 10.62V9.04996C17.8604 7.76996 18.9003 6.72998 20.1803 6.72998C21.4603 6.72998 22.5004 7.76996 22.5004 9.04996C22.5004 10.33 21.4603 11.37 20.1803 11.37ZM19.3703 9.86996H20.1904C20.6404 9.86996 21.0103 9.49996 21.0103 9.04996C21.0103 8.59996 20.6404 8.22998 20.1904 8.22998C19.7404 8.22998 19.3703 8.59996 19.3703 9.04996V9.86996Z" fill="black"/>
<path d="M8.5 11.8299H3.86C2.42 11.8299 1.25 10.6599 1.25 9.21988C1.25 7.77988 2.42 6.60986 3.86 6.60986H8.5C9.94 6.60986 11.11 7.77988 11.11 9.21988C11.11 10.6599 9.94 11.8299 8.5 11.8299ZM3.86 8.11987C3.25 8.11987 2.75 8.61989 2.75 9.22989C2.75 9.83989 3.25 10.3399 3.86 10.3399H8.5C9.11 10.3399 9.61 9.83989 9.61 9.22989C9.61 8.61989 9.11 8.11987 8.5 8.11987H3.86Z" fill="black"/>
<path d="M10.3597 5.88H8.78972C7.50972 5.88 6.46973 4.84 6.46973 3.56C6.46973 2.28 7.50972 1.23999 8.78972 1.23999C10.0697 1.23999 11.1097 2.28 11.1097 3.56V5.13C11.1097 5.55 10.7697 5.88 10.3597 5.88ZM8.78972 2.75C8.33972 2.75 7.96973 3.12001 7.96973 3.57001C7.96973 4.02001 8.33972 4.39001 8.78972 4.39001H9.60973V3.57001C9.60973 3.12001 9.23972 2.75 8.78972 2.75Z" fill="black"/>
<path d="M9.4303 22.5199C7.9903 22.5199 6.82031 21.3499 6.82031 19.9099V15.2699C6.82031 13.8299 7.9903 12.6599 9.4303 12.6599C10.8703 12.6599 12.0403 13.8299 12.0403 15.2699V19.9099C12.0403 21.3499 10.8703 22.5199 9.4303 22.5199ZM9.4303 14.1599C8.8203 14.1599 8.32031 14.6599 8.32031 15.2699V19.9099C8.32031 20.5199 8.8203 21.0199 9.4303 21.0199C10.0403 21.0199 10.5403 20.5199 10.5403 19.9099V15.2699C10.5403 14.6499 10.0403 14.1599 9.4303 14.1599Z" fill="black"/>
<path d="M3.78972 17.2899C2.50972 17.2899 1.46973 16.2499 1.46973 14.9699C1.46973 13.6899 2.50972 12.6499 3.78972 12.6499H5.35973C5.76973 12.6499 6.10973 12.9899 6.10973 13.3999V14.9699C6.10973 16.2499 5.06972 17.2899 3.78972 17.2899ZM3.78972 14.1599C3.33972 14.1599 2.96973 14.5299 2.96973 14.9799C2.96973 15.4299 3.33972 15.7999 3.78972 15.7999C4.23972 15.7999 4.60973 15.4299 4.60973 14.9799V14.1599H3.78972Z" fill="black"/>
<path d="M20.1104 17.4099H15.4704C14.0304 17.4099 12.8604 16.2399 12.8604 14.7999C12.8604 13.3599 14.0304 12.1899 15.4704 12.1899H20.1104C21.5504 12.1899 22.7204 13.3599 22.7204 14.7999C22.7204 16.2399 21.5504 17.4099 20.1104 17.4099ZM15.4704 13.6899C14.8604 13.6899 14.3604 14.1899 14.3604 14.7999C14.3604 15.4099 14.8604 15.9099 15.4704 15.9099H20.1104C20.7204 15.9099 21.2204 15.4099 21.2204 14.7999C21.2204 14.1899 20.7204 13.6899 20.1104 13.6899H15.4704Z" fill="black"/>
<path d="M15.1803 22.7301C13.9003 22.7301 12.8604 21.6901 12.8604 20.4101V18.8401C12.8604 18.4301 13.2004 18.0901 13.6104 18.0901H15.1803C16.4603 18.0901 17.5004 19.1301 17.5004 20.4101C17.5004 21.6901 16.4503 22.7301 15.1803 22.7301ZM14.3604 19.5901V20.4101C14.3604 20.8601 14.7303 21.2301 15.1803 21.2301C15.6303 21.2301 16.0004 20.8601 16.0004 20.4101C16.0004 19.9601 15.6303 19.5901 15.1803 19.5901H14.3604Z" fill="black"/>
</svg>
