<svg width="24" height="24" viewBox="0 0 24 24" fill="none" xmlns="http://www.w3.org/2000/svg">
<path d="M14.5402 11.37C13.1002 11.37 11.9302 10.2 11.9302 8.76001V4.12C11.9302 2.68 13.1002 1.51001 14.5402 1.51001C15.9802 1.51001 17.1502 2.68 17.1502 4.12V8.76001C17.1502 10.2 15.9802 11.37 14.5402 11.37ZM14.5402 3.01001C13.9302 3.01001 13.4302 3.51 13.4302 4.12V8.76001C13.4302 9.37001 13.9302 9.87 14.5402 9.87C15.1502 9.87 15.6502 9.37001 15.6502 8.76001V4.12C15.6502 3.51 15.1502 3.01001 14.5402 3.01001Z" fill="black"/>
<path d="M20.1799 11.37H18.6099C18.1999 11.37 17.8599 11.03 17.8599 10.62V9.04996C17.8599 7.76996 18.8999 6.72998 20.1799 6.72998C21.4599 6.72998 22.4999 7.76996 22.4999 9.04996C22.4999 10.33 21.4599 11.37 20.1799 11.37ZM19.3699 9.86996H20.1899C20.6399 9.86996 21.0099 9.49996 21.0099 9.04996C21.0099 8.59996 20.6399 8.22998 20.1899 8.22998C19.7399 8.22998 19.3699 8.59996 19.3699 9.04996V9.86996Z" fill="black"/>
<path d="M8.5 11.8299H3.86C2.42 11.8299 1.25 10.6599 1.25 9.21988C1.25 7.77988 2.42 6.60986 3.86 6.60986H8.5C9.94 6.60986 11.11 7.77988 11.11 9.21988C11.11 10.6599 9.94 11.8299 8.5 11.8299ZM3.86 8.11987C3.25 8.11987 2.75 8.61989 2.75 9.22989C2.75 9.83989 3.25 10.3399 3.86 10.3399H8.5C9.11 10.3399 9.61 9.83989 9.61 9.22989C9.61 8.61989 9.11 8.11987 8.5 8.11987H3.86Z" fill="black"/>
<path d="M10.3602 5.88H8.79021C7.51021 5.88 6.47021 4.84 6.47021 3.56C6.47021 2.28 7.51021 1.23999 8.79021 1.23999C10.0702 1.23999 11.1102 2.28 11.1102 3.56V5.13C11.1102 5.55 10.7702 5.88 10.3602 5.88ZM8.79021 2.75C8.34021 2.75 7.97021 3.12001 7.97021 3.57001C7.97021 4.02001 8.34021 4.39001 8.79021 4.39001H9.61021V3.57001C9.61021 3.12001 9.24021 2.75 8.79021 2.75Z" fill="black"/>
<path d="M9.42981 22.5199C7.98981 22.5199 6.81982 21.3499 6.81982 19.9099V15.2699C6.81982 13.8299 7.98981 12.6599 9.42981 12.6599C10.8698 12.6599 12.0398 13.8299 12.0398 15.2699V19.9099C12.0398 21.3499 10.8698 22.5199 9.42981 22.5199ZM9.42981 14.1599C8.81981 14.1599 8.31982 14.6599 8.31982 15.2699V19.9099C8.31982 20.5199 8.81981 21.0199 9.42981 21.0199C10.0398 21.0199 10.5398 20.5199 10.5398 19.9099V15.2699C10.5398 14.6499 10.0398 14.1599 9.42981 14.1599Z" fill="black"/>
<path d="M3.79021 17.2899C2.51021 17.2899 1.47021 16.2499 1.47021 14.9699C1.47021 13.6899 2.51021 12.6499 3.79021 12.6499H5.36021C5.77021 12.6499 6.11021 12.9899 6.11021 13.3999V14.9699C6.11021 16.2499 5.07021 17.2899 3.79021 17.2899ZM3.79021 14.1599C3.34021 14.1599 2.97021 14.5299 2.97021 14.9799C2.97021 15.4299 3.34021 15.7999 3.79021 15.7999C4.24021 15.7999 4.61021 15.4299 4.61021 14.9799V14.1599H3.79021Z" fill="black"/>
<path d="M20.1099 17.4099H15.4699C14.0299 17.4099 12.8599 16.2399 12.8599 14.7999C12.8599 13.3599 14.0299 12.1899 15.4699 12.1899H20.1099C21.5499 12.1899 22.7199 13.3599 22.7199 14.7999C22.7199 16.2399 21.5499 17.4099 20.1099 17.4099ZM15.4699 13.6899C14.8599 13.6899 14.3599 14.1899 14.3599 14.7999C14.3599 15.4099 14.8599 15.9099 15.4699 15.9099H20.1099C20.7199 15.9099 21.2199 15.4099 21.2199 14.7999C21.2199 14.1899 20.7199 13.6899 20.1099 13.6899H15.4699Z" fill="black"/>
<path d="M15.1799 22.7301C13.8999 22.7301 12.8599 21.6901 12.8599 20.4101V18.8401C12.8599 18.4301 13.1999 18.0901 13.6099 18.0901H15.1799C16.4599 18.0901 17.4999 19.1301 17.4999 20.4101C17.4999 21.6901 16.4499 22.7301 15.1799 22.7301ZM14.3599 19.5901V20.4101C14.3599 20.8601 14.7299 21.2301 15.1799 21.2301C15.6299 21.2301 15.9999 20.8601 15.9999 20.4101C15.9999 19.9601 15.6299 19.5901 15.1799 19.5901H14.3599Z" fill="black"/>
</svg>
