<svg width="24" height="24" viewBox="0 0 24 24" fill="none" xmlns="http://www.w3.org/2000/svg">
<path d="M18.61 6.68007C18.2 6.68007 17.86 6.34007 17.86 5.93007V4.42007C17.86 3.82007 17.37 3.32007 16.76 3.32007H3.82999C3.22999 3.32007 2.72999 3.81007 2.72999 4.42007V5.93007C2.72999 6.34007 2.38999 6.68007 1.97999 6.68007C1.56999 6.68007 1.23999 6.34007 1.23999 5.93007V4.42007C1.23999 2.99007 2.40999 1.82007 3.83999 1.82007H16.76C18.19 1.82007 19.36 2.98007 19.36 4.42007V5.93007C19.36 6.34007 19.02 6.68007 18.61 6.68007Z" fill="black"/>
<path d="M10.3 18.8501C9.88999 18.8501 9.54999 18.5101 9.54999 18.1001V3.32007C9.54999 2.91007 9.88999 2.57007 10.3 2.57007C10.71 2.57007 11.05 2.91007 11.05 3.32007V18.1001C11.05 18.5201 10.71 18.8501 10.3 18.8501Z" fill="black"/>
<path d="M12.48 18.8501H6.89999C6.48999 18.8501 6.14999 18.5101 6.14999 18.1001C6.14999 17.6901 6.48999 17.3501 6.89999 17.3501H12.48C12.89 17.3501 13.23 17.6901 13.23 18.1001C13.23 18.5101 12.89 18.8501 12.48 18.8501Z" fill="black"/>
<path d="M22.01 13.2001C21.6 13.2001 21.26 12.8601 21.26 12.4501V11.6501C21.26 11.3401 21 11.0801 20.69 11.0801H13.68C13.27 11.0801 12.93 10.7401 12.93 10.3301C12.93 9.92008 13.27 9.58008 13.68 9.58008H20.69C21.83 9.58008 22.76 10.5101 22.76 11.6501V12.4501C22.76 12.8701 22.43 13.2001 22.01 13.2001Z" fill="black"/>
<path d="M16.08 22.1801C15.67 22.1801 15.33 21.8401 15.33 21.4301V10.8701C15.33 10.4601 15.67 10.1201 16.08 10.1201C16.49 10.1201 16.83 10.4601 16.83 10.8701V21.4301C16.83 21.8401 16.49 22.1801 16.08 22.1801Z" fill="black"/>
<path d="M18.22 22.1799H13.94C13.53 22.1799 13.19 21.8399 13.19 21.4299C13.19 21.0199 13.53 20.6799 13.94 20.6799H18.22C18.63 20.6799 18.97 21.0199 18.97 21.4299C18.97 21.8399 18.63 22.1799 18.22 22.1799Z" fill="black"/>
</svg>
