<svg width="24" height="24" viewBox="0 0 24 24" fill="none" xmlns="http://www.w3.org/2000/svg">
<path d="M12 22.75C6.07 22.75 1.25 17.93 1.25 12C1.25 6.07 6.07 1.25 12 1.25C17.93 1.25 22.75 6.07 22.75 12C22.75 17.93 17.93 22.75 12 22.75ZM12 2.75C6.9 2.75 2.75 6.9 2.75 12C2.75 17.1 6.9 21.25 12 21.25C17.1 21.25 21.25 17.1 21.25 12C21.25 6.9 17.1 2.75 12 2.75Z" fill="black"/>
<path d="M17.4802 11.4199C17.3302 11.4199 17.1802 11.3699 17.0402 11.2799C14.0602 9.1399 10.2402 8.6699 6.84022 10.0299C6.45022 10.1799 6.02022 9.98988 5.87022 9.60988C5.72022 9.22988 5.91022 8.78991 6.29022 8.63991C10.1702 7.09991 14.5202 7.62991 17.9202 10.0699C18.2602 10.3099 18.3302 10.7799 18.0902 11.1199C17.9502 11.3099 17.7202 11.4199 17.4802 11.4199Z" fill="black"/>
<path d="M15.9098 14.1099C15.7598 14.1099 15.6098 14.0599 15.4698 13.9699C13.3498 12.4499 10.6399 12.1199 8.20985 13.0799C7.82985 13.2299 7.38985 13.0399 7.23985 12.6599C7.08985 12.2699 7.27985 11.8399 7.65985 11.6899C10.5598 10.5399 13.8098 10.9399 16.3398 12.7599C16.6798 12.9999 16.7498 13.4699 16.5098 13.8099C16.3698 13.9999 16.1398 14.1099 15.9098 14.1099Z" fill="black"/>
<path d="M14.81 16.9C14.66 16.9 14.51 16.8501 14.37 16.7601C12.83 15.6601 10.86 15.42 9.09999 16.11C8.71999 16.26 8.27999 16.0701 8.12999 15.6901C7.97999 15.3001 8.16998 14.8701 8.54998 14.7201C10.79 13.8301 13.29 14.1401 15.24 15.5401C15.58 15.7801 15.65 16.2501 15.41 16.5901C15.28 16.7901 15.05 16.9 14.81 16.9Z" fill="black"/>
</svg>
