<svg width="24" height="24" viewBox="0 0 24 24" fill="none" xmlns="http://www.w3.org/2000/svg">
<path d="M16.5 11.25H7.5C7.09 11.25 6.75 10.91 6.75 10.5C6.75 10.09 7.09 9.75 7.5 9.75H16.5C16.91 9.75 17.25 10.09 17.25 10.5C17.25 10.91 16.91 11.25 16.5 11.25Z" fill="black"/>
<path d="M11.8198 11.2501C11.5798 11.2501 11.3498 11.14 11.2098 10.93L8.38981 6.93004C8.14981 6.59004 8.2298 6.12005 8.5698 5.89005C8.9098 5.65005 9.37978 5.73006 9.60978 6.07006L12.4298 10.0701C12.6698 10.4101 12.5898 10.8801 12.2498 11.1101C12.1198 11.2101 11.9698 11.2501 11.8198 11.2501Z" fill="black"/>
<path d="M11.9998 11.2501C11.8498 11.2501 11.6998 11.2101 11.5698 11.1101C11.2298 10.8701 11.1498 10.4001 11.3898 10.0701L14.2098 6.07006C14.4498 5.73006 14.9198 5.65005 15.2498 5.89005C15.5898 6.13005 15.6698 6.60004 15.4298 6.93004L12.6098 10.93C12.4698 11.14 12.2298 11.2501 11.9998 11.2501Z" fill="black"/>
<path d="M16.5 14.25H7.5C7.09 14.25 6.75 13.91 6.75 13.5C6.75 13.09 7.09 12.75 7.5 12.75H16.5C16.91 12.75 17.25 13.09 17.25 13.5C17.25 13.91 16.91 14.25 16.5 14.25Z" fill="black"/>
<path d="M8.9998 18.2501C8.8498 18.2501 8.6998 18.2101 8.5698 18.1101C8.2298 17.8701 8.14981 17.4001 8.38981 17.0701L11.2098 13.0701C11.4498 12.7301 11.9198 12.6501 12.2498 12.8901C12.5898 13.1301 12.6698 13.6 12.4298 13.93L9.60978 17.93C9.46978 18.14 9.2298 18.2501 8.9998 18.2501Z" fill="black"/>
<path d="M14.8198 18.2501C14.5798 18.2501 14.3498 18.14 14.2098 17.93L11.3898 13.93C11.1498 13.59 11.2298 13.1201 11.5698 12.8901C11.9098 12.6501 12.3798 12.7301 12.6098 13.0701L15.4298 17.0701C15.6698 17.4101 15.5898 17.8801 15.2498 18.1101C15.1198 18.2101 14.9698 18.2501 14.8198 18.2501Z" fill="black"/>
<path d="M12 22.75C6.07 22.75 1.25 17.93 1.25 12C1.25 6.07 6.07 1.25 12 1.25C17.93 1.25 22.75 6.07 22.75 12C22.75 17.93 17.93 22.75 12 22.75ZM12 2.75C6.9 2.75 2.75 6.9 2.75 12C2.75 17.1 6.9 21.25 12 21.25C17.1 21.25 21.25 17.1 21.25 12C21.25 6.9 17.1 2.75 12 2.75Z" fill="black"/>
</svg>
