<svg width="24" height="24" viewBox="0 0 24 24" fill="none" xmlns="http://www.w3.org/2000/svg">
<path d="M5.28012 19.4001C5.22012 19.4001 5.17012 19.3901 5.11012 19.3801C4.71012 19.2901 4.45012 18.8801 4.55012 18.4801L5.12012 16.0201C5.20012 15.7001 5.04012 15.1501 4.80012 14.9101L2.32012 12.4301C1.08012 11.1901 1.18012 10.1301 1.35012 9.61008C1.52012 9.09008 2.06012 8.17008 3.78012 7.88008L6.97012 7.35008C7.27012 7.29008 7.70012 6.97008 7.83012 6.70008L9.60012 3.17008C10.4001 1.56008 11.4501 1.33008 12.0001 1.33008C12.5501 1.33008 13.6001 1.57008 14.4001 3.17008L16.1601 6.69008C16.2201 6.81008 16.3501 6.95008 16.5001 7.07008C16.8301 7.32008 16.8901 7.80008 16.6301 8.12008C16.3801 8.45008 15.9101 8.51008 15.5801 8.25008C15.3401 8.07008 15.0201 7.76008 14.8201 7.36008L13.0601 3.84008C12.7501 3.21008 12.3501 2.83008 12.0001 2.83008C11.6501 2.83008 11.2501 3.21008 10.9401 3.85008L9.17012 7.37008C8.82012 8.07008 7.98012 8.69008 7.21012 8.82008L4.03012 9.35008C3.35012 9.46008 2.89012 9.73008 2.78012 10.0601C2.67012 10.3901 2.90012 10.8801 3.39012 11.3601L5.87012 13.8401C6.47012 14.4401 6.78012 15.5201 6.59012 16.3501L6.02012 18.8101C5.93012 19.1601 5.63012 19.4001 5.28012 19.4001Z" fill="black"/>
<path d="M17.6601 22.6699C17.1301 22.6699 16.4501 22.4999 15.6001 21.9999L12.6101 20.2299C12.3001 20.0499 11.7001 20.0499 11.4001 20.2299L8.40006 21.9999C8.05006 22.2099 7.58006 22.0899 7.37006 21.7399C7.16006 21.3799 7.28006 20.9199 7.63006 20.7099L10.6201 18.9399C11.4001 18.4799 12.5801 18.4799 13.3601 18.9399L16.3501 20.7099C17.2201 21.2299 17.7701 21.2299 17.9801 21.0799C18.1901 20.9299 18.3401 20.3999 18.1201 19.4199L17.4101 16.3499C17.2201 15.5199 17.5301 14.4499 18.1301 13.8399L20.6101 11.3599C21.1001 10.8699 21.3201 10.3899 21.2201 10.0599C21.1101 9.7299 20.6501 9.4599 19.9701 9.3499C19.5601 9.2799 19.2901 8.8999 19.3501 8.4899C19.4201 8.0799 19.8001 7.8099 20.2101 7.8699C21.9401 8.1599 22.4801 9.0799 22.6401 9.5999C22.8001 10.1199 22.9001 11.1799 21.6701 12.4199L19.2001 14.8999C18.9601 15.1399 18.8101 15.6799 18.8801 16.0099L19.5901 19.0799C20.0501 21.0799 19.3401 21.9499 18.8801 22.2899C18.6301 22.4699 18.2301 22.6699 17.6601 22.6699Z" fill="black"/>
<path d="M1.99994 22.7499C1.80994 22.7499 1.61994 22.6799 1.46994 22.5299C1.17994 22.2399 1.17994 21.7599 1.46994 21.4699L21.4699 1.46994C21.7599 1.17994 22.2399 1.17994 22.5299 1.46994C22.8199 1.75994 22.8199 2.23994 22.5299 2.52994L2.52994 22.5299C2.37994 22.6799 2.18994 22.7499 1.99994 22.7499Z" fill="black"/>
</svg>
