<svg width="24" height="24" viewBox="0 0 24 24" fill="none" xmlns="http://www.w3.org/2000/svg">
<path d="M11.9698 22.7499C11.3598 22.7499 10.7298 22.6999 10.0898 22.5899C5.68981 21.8399 2.09981 18.2399 1.36981 13.8199C0.789808 10.3099 1.87981 6.87991 4.36981 4.38991C6.85981 1.89991 10.2898 0.819909 13.7898 1.38991C18.1998 2.11991 21.8098 5.69991 22.5598 10.0999C22.7198 11.0699 22.7598 12.0199 22.6798 12.9199V12.9299C22.6598 13.1599 22.6198 13.3799 22.5598 13.5999C22.4898 13.8499 22.2998 14.0399 22.0598 14.1199C21.8198 14.1999 21.5498 14.1399 21.3498 13.9799C20.4098 13.1899 19.2098 12.7499 17.9698 12.7499C15.0698 12.7499 12.7198 15.1099 12.7198 17.9999C12.7198 19.2399 13.1598 20.4399 13.9498 21.3799C14.1198 21.5799 14.1698 21.8399 14.0898 22.0899C14.0098 22.3399 13.8198 22.5199 13.5698 22.5899C13.3498 22.6499 13.1298 22.6899 12.8998 22.7099C12.5998 22.7399 12.2898 22.7499 11.9698 22.7499ZM11.9698 2.74991C9.51981 2.74991 7.19981 3.69991 5.43981 5.45991C3.29981 7.59991 2.35981 10.5599 2.85981 13.5799C3.48981 17.3699 6.55981 20.4699 10.3498 21.1099C10.9498 21.2099 11.5198 21.2699 12.0698 21.2499C11.5298 20.2599 11.2398 19.1399 11.2398 17.9999C11.2398 14.2799 14.2698 11.2499 17.9898 11.2499C19.1298 11.2499 20.2498 11.5399 21.2398 12.0799C21.2498 11.5299 21.1998 10.9599 21.0998 10.3599C20.4598 6.57991 17.3598 3.49991 13.5698 2.87991C13.0198 2.78991 12.4898 2.74991 11.9698 2.74991Z" fill="black"/>
<path d="M13.3802 22.61C13.1602 22.61 12.9502 22.52 12.8102 22.34C11.7902 21.13 11.2202 19.59 11.2202 18C11.2202 14.28 14.2502 11.25 17.9702 11.25C19.5602 11.25 21.1002 11.81 22.3102 12.84C22.5402 13.03 22.6302 13.34 22.5502 13.62C22.3702 14.24 22.0502 14.78 21.5902 15.24L15.2102 21.62C14.7502 22.08 14.2002 22.4 13.5902 22.58C13.5202 22.6 13.4502 22.61 13.3802 22.61ZM17.9702 12.75C15.0702 12.75 12.7202 15.11 12.7202 18C12.7202 19.06 13.0402 20.09 13.6302 20.95C13.8202 20.85 13.9902 20.72 14.1502 20.56L20.5302 14.18C20.6902 14.02 20.8202 13.85 20.9202 13.66C20.0602 13.07 19.0302 12.75 17.9702 12.75Z" fill="black"/>
</svg>
