<svg width="24" height="24" viewBox="0 0 24 24" fill="none" xmlns="http://www.w3.org/2000/svg">
<path d="M12.07 21.9801C10.66 21.9801 9.24003 21.4401 8.17003 20.3701L3.64003 15.8401C2.54003 14.7401 1.96003 13.2201 2.03003 11.6701L2.27003 6.66008C2.38003 4.27008 4.27003 2.38008 6.67003 2.26008L11.67 2.02008C13.23 1.95008 14.74 2.53008 15.84 3.63008L20.37 8.16008C22.52 10.3101 22.52 13.8201 20.37 15.9701L15.98 20.3601C14.9 21.4401 13.49 21.9801 12.07 21.9801ZM4.70003 14.7701L9.23003 19.3001C10.8 20.8701 13.35 20.8701 14.92 19.3001L19.31 14.9101C20.88 13.3401 20.88 10.7901 19.31 9.22008L14.77 4.70008C13.97 3.90008 12.88 3.48008 11.73 3.53008L6.73003 3.77008C5.11003 3.84008 3.84003 5.11008 3.76003 6.73008L3.52003 11.7401C3.47003 12.8601 3.90003 13.9701 4.70003 14.7701Z" fill="black"/>
<path d="M9.5 12.75C7.71 12.75 6.25 11.29 6.25 9.5C6.25 7.71 7.71 6.25 9.5 6.25C11.29 6.25 12.75 7.71 12.75 9.5C12.75 11.29 11.29 12.75 9.5 12.75ZM9.5 7.75C8.54 7.75 7.75 8.54 7.75 9.5C7.75 10.46 8.54 11.25 9.5 11.25C10.46 11.25 11.25 10.46 11.25 9.5C11.25 8.54 10.46 7.75 9.5 7.75Z" fill="black"/>
<path d="M13 17.7499C12.81 17.7499 12.62 17.6799 12.47 17.5299C12.18 17.2399 12.18 16.7599 12.47 16.4699L16.47 12.4699C16.76 12.1799 17.24 12.1799 17.53 12.4699C17.82 12.7599 17.82 13.2399 17.53 13.5299L13.53 17.5299C13.38 17.6799 13.19 17.7499 13 17.7499Z" fill="black"/>
</svg>
