<svg width="24" height="24" viewBox="0 0 24 24" fill="none" xmlns="http://www.w3.org/2000/svg">
<path d="M12.07 21.9799C10.66 21.9799 9.24003 21.4399 8.17003 20.3699L3.64003 15.8399C2.54003 14.7399 1.96003 13.2199 2.03003 11.6699L2.27003 6.66993C2.38003 4.27993 4.27003 2.38993 6.67003 2.26993L11.67 2.02993C13.22 1.96993 14.74 2.53993 15.84 3.63993L20.37 8.16993C22.52 10.3199 22.52 13.8299 20.37 15.9799L15.98 20.3699C14.9 21.4399 13.49 21.9799 12.07 21.9799ZM4.70003 14.7699L9.23003 19.2999C9.99003 20.0599 11 20.4799 12.07 20.4799C13.14 20.4799 14.15 20.0599 14.91 19.2999L19.3 14.9099C20.06 14.1499 20.48 13.1399 20.48 12.0699C20.48 10.9999 20.06 9.98993 19.3 9.22993L14.77 4.69993C13.97 3.89993 12.86 3.46993 11.74 3.52993L6.74003 3.76993C5.11003 3.83993 3.84003 5.10993 3.76003 6.72993L3.52003 11.7299C3.47003 12.8599 3.90003 13.9699 4.70003 14.7699Z" fill="black"/>
<path d="M9.5 12.75C7.71 12.75 6.25 11.29 6.25 9.5C6.25 7.71 7.71 6.25 9.5 6.25C11.29 6.25 12.75 7.71 12.75 9.5C12.75 11.29 11.29 12.75 9.5 12.75ZM9.5 7.75C8.54 7.75 7.75 8.54 7.75 9.5C7.75 10.46 8.54 11.25 9.5 11.25C10.46 11.25 11.25 10.46 11.25 9.5C11.25 8.54 10.46 7.75 9.5 7.75Z" fill="black"/>
</svg>
