<svg width="24" height="24" viewBox="0 0 24 24" fill="none" xmlns="http://www.w3.org/2000/svg">
<path d="M12.0002 21.3999C11.0602 21.3999 10.1202 21.0799 9.41022 20.4299L2.48021 14.1399C1.27021 13.0399 0.890211 11.0299 1.62021 9.56986L4.02022 4.74986C4.62022 3.54986 6.13022 2.60986 7.47022 2.60986H16.5302C17.8702 2.60986 19.3802 3.54986 19.9802 4.74986L22.3802 9.56986C23.1102 11.0299 22.7302 13.0399 21.5202 14.1399L14.5902 20.4299C13.8802 21.0699 12.9402 21.3999 12.0002 21.3999ZM7.47022 4.09986C6.69022 4.09986 5.71022 4.70986 5.36022 5.40986L2.96022 10.2299C2.54022 11.0799 2.78022 12.3799 3.49022 13.0199L10.4202 19.3099C11.2802 20.0899 12.7302 20.0899 13.5802 19.3099L20.5102 13.0199C21.2102 12.3799 21.4602 11.0799 21.0402 10.2299L18.6402 5.40986C18.2902 4.71986 17.3102 4.10986 16.5302 4.10986H7.47022V4.09986Z" fill="black"/>
<path d="M12 15.25C11.59 15.25 11.25 14.91 11.25 14.5V8.5C11.25 8.09 11.59 7.75 12 7.75C12.41 7.75 12.75 8.09 12.75 8.5V14.5C12.75 14.91 12.41 15.25 12 15.25Z" fill="black"/>
<path d="M16 9.25H8C7.59 9.25 7.25 8.91 7.25 8.5C7.25 8.09 7.59 7.75 8 7.75H16C16.41 7.75 16.75 8.09 16.75 8.5C16.75 8.91 16.41 9.25 16 9.25Z" fill="black"/>
</svg>
