<svg width="24" height="24" viewBox="0 0 24 24" fill="none" xmlns="http://www.w3.org/2000/svg">
<path d="M21.33 7.92003C20.92 7.92003 20.58 7.58003 20.58 7.17003V5.35003C20.58 4.62003 19.99 4.03003 19.26 4.03003H4.74001C4.01001 4.03003 3.42001 4.62003 3.42001 5.35003V7.18003C3.42001 7.59003 3.08001 7.93003 2.67001 7.93003C2.26001 7.93003 1.92001 7.59003 1.92001 7.17003V5.35003C1.92001 3.79003 3.19001 2.53003 4.74001 2.53003H19.26C20.82 2.53003 22.08 3.80003 22.08 5.35003V7.18003C22.08 7.59003 21.75 7.92003 21.33 7.92003Z" fill="black"/>
<path d="M12 21.4701C11.59 21.4701 11.25 21.1301 11.25 20.7201V4.11011C11.25 3.70011 11.59 3.36011 12 3.36011C12.41 3.36011 12.75 3.70011 12.75 4.11011V20.7201C12.75 21.1401 12.41 21.4701 12 21.4701Z" fill="black"/>
<path d="M15.94 21.47H8.06C7.65 21.47 7.31 21.13 7.31 20.72C7.31 20.31 7.65 19.97 8.06 19.97H15.94C16.35 19.97 16.69 20.31 16.69 20.72C16.69 21.13 16.35 21.47 15.94 21.47Z" fill="black"/>
</svg>
