<svg width="24" height="24" viewBox="0 0 24 24" fill="none" xmlns="http://www.w3.org/2000/svg">
<path d="M20 14.6394L20 7.56062C20 7.25415 20.34 7 20.75 7C21.16 7 21.5 7.25415 21.5 7.56062L21.5 14.6394C21.5 14.9459 21.16 15.2 20.75 15.2C20.34 15.2 20 14.9533 20 14.6394Z" fill="black"/>
<path d="M2 14.6394L2 7.56062C2 7.25415 2.34 7 2.75 7C3.16 7 3.5 7.25415 3.5 7.56062L3.5 14.6394C3.5 14.9459 3.16 15.2 2.75 15.2C2.34 15.2 2 14.9533 2 14.6394Z" fill="black"/>
<path d="M20.75 15.5H2.75C2.34 15.5 2 15.16 2 14.75C2 14.34 2.34 14 2.75 14H20.75C21.16 14 21.5 14.34 21.5 14.75C21.5 15.16 21.16 15.5 20.75 15.5Z" fill="black"/>
</svg>
