<svg width="24" height="24" viewBox="0 0 24 24" fill="none" xmlns="http://www.w3.org/2000/svg">
<path d="M18.06 22.1601H5.93998C3.98998 22.1601 2.49998 21.4501 1.73998 20.1701C0.989976 18.8901 1.08998 17.2401 2.03998 15.5401L8.09998 4.63009C9.09998 2.83009 10.48 1.84009 12 1.84009C13.52 1.84009 14.9 2.83009 15.9 4.63009L21.96 15.5401C22.91 17.2501 23.02 18.8901 22.26 20.1701C21.5 21.4501 20.01 22.1601 18.06 22.1601ZM12 3.34009C11.06 3.34009 10.14 4.06009 9.40998 5.36009L3.35998 16.2701C2.67998 17.4901 2.56998 18.6101 3.03998 19.4201C3.50998 20.2201 4.54998 20.6701 5.94998 20.6701H18.07C19.47 20.6701 20.5 20.2301 20.98 19.4201C21.45 18.6101 21.34 17.5001 20.66 16.2701L14.59 5.36009C13.86 4.06009 12.94 3.34009 12 3.34009Z" fill="black"/>
<path d="M21.4399 20.75C21.2899 20.75 21.1399 20.71 21.0099 20.61L11.9999 14.3L2.98987 20.61C2.64987 20.85 2.17987 20.77 1.94987 20.43C1.70987 20.09 1.78987 19.62 2.12987 19.39L11.5699 12.78C11.8299 12.6 12.1699 12.6 12.4299 12.78L21.8699 19.39C22.2099 19.63 22.2899 20.1 22.0499 20.43C21.9099 20.64 21.6799 20.75 21.4399 20.75Z" fill="black"/>
<path d="M12 14.14C11.59 14.14 11.25 13.8 11.25 13.39V3C11.25 2.59 11.59 2.25 12 2.25C12.41 2.25 12.75 2.59 12.75 3V13.39C12.75 13.8 12.41 14.14 12 14.14Z" fill="black"/>
</svg>
