<svg width="24" height="24" viewBox="0 0 24 24" fill="none" xmlns="http://www.w3.org/2000/svg">
<path d="M22 3.77979H2C1.59 3.77979 1.25 3.43979 1.25 3.02979C1.25 2.61979 1.59 2.27979 2 2.27979H22C22.41 2.27979 22.75 2.61979 22.75 3.02979C22.75 3.43979 22.41 3.77979 22 3.77979Z" fill="black"/>
<path d="M12.0001 21.7199C11.3601 21.7199 10.7801 21.3999 10.4301 20.8699L2.47015 8.47987C2.10015 7.90987 2.08014 7.17986 2.40014 6.57986C2.73014 5.97986 3.35015 5.60986 4.03015 5.60986H19.9601C20.6401 5.60986 21.2701 5.97986 21.5901 6.57986C21.9201 7.17986 21.8901 7.90987 21.5201 8.47987L13.5601 20.8699C13.2201 21.3999 12.6401 21.7199 12.0001 21.7199ZM4.04016 7.10986C3.85016 7.10986 3.75015 7.23987 3.72015 7.29987C3.69015 7.35987 3.63016 7.50986 3.73016 7.66986L11.6901 20.0599C11.7801 20.1999 11.9201 20.2299 11.9901 20.2299C12.0601 20.2299 12.2002 20.2099 12.2902 20.0599L20.2501 7.66986C20.3501 7.50986 20.2902 7.35987 20.2602 7.29987C20.2302 7.23987 20.1401 7.10986 19.9401 7.10986H4.04016Z" fill="black"/>
</svg>
